<svg xmlns="http://www.w3.org/2000/svg" width="65" height="65" viewBox="0 0 65 65">
    <defs>
        <style>
            .cls-2{fill:#fff}
        </style>
    </defs>
    <g id="_icon_cosmic" transform="translate(-2.454 -2.454)">
        <circle id="Elipse_683" cx="32.5" cy="32.5" r="32.5" fill="#1270e3" transform="translate(2.454 2.454)"/>
        <g id="Grupo_6" transform="translate(13.806 13.806)">
            <path id="Trazado_12" d="M65.132 44.1a2.8 2.8 0 0 1 1.361.325v.917a2.409 2.409 0 0 0-1.361-.444 1.7 1.7 0 0 0-1.774 1.626v.119a1.727 1.727 0 0 0 1.706 1.747h.1a2.195 2.195 0 0 0 1.39-.474v.917a3 3 0 0 1-1.45.355 2.5 2.5 0 0 1-2.633-2.544 2.572 2.572 0 0 1 2.6-2.546z" class="cls-2" transform="translate(-30.788 -25.79)"/>
            <path id="Trazado_13" d="M59.218 44.222h.887v4.94h-.887z" class="cls-2" transform="translate(-29.904 -25.823)"/>
            <path id="Trazado_14" d="M50.092 44.222h.858l1.6 2.308 1.6-2.308h.828v4.94h-.888v-3.521c-.207.325-.413.622-.651.977l-.946 1.3-.946-1.3c-.237-.325-.444-.652-.652-.977v3.521h-.856c.053 0 .053-4.94.053-4.94z" class="cls-2" transform="translate(-27.405 -25.823)"/>
            <path id="Trazado_15" d="M43.609 47.957a2.77 2.77 0 0 0 1.508.5c.5 0 .858-.207.858-.681 0-.561-.533-.621-1.154-.828-.71-.207-1.331-.532-1.331-1.39 0-.917.681-1.419 1.657-1.419a2.72 2.72 0 0 1 1.449.384v.887a2.87 2.87 0 0 0-1.479-.473c-.473 0-.8.178-.8.621 0 .533.533.592 1.095.769.74.237 1.361.561 1.361 1.449 0 .947-.71 1.479-1.716 1.479a3.115 3.115 0 0 1-1.479-.355l.03-.946z" class="cls-2" transform="translate(-25.625 -25.801)"/>
            <path id="Trazado_16" d="M34.711 46.644a2.489 2.489 0 0 1 2.433-2.544h.111a2.544 2.544 0 1 1 .047 5.088h-.047a2.454 2.454 0 0 1-2.544-2.363q-.004-.09 0-.181zm4.23 0a1.68 1.68 0 0 0-1.615-1.744h-.071a1.747 1.747 0 0 0 0 3.491 1.682 1.682 0 0 0 1.687-1.676c.001-.025.001-.048-.001-.071z" class="cls-2" transform="translate(-23.236 -25.79)"/>
            <path id="Trazado_11" d="M61.219 39.089a21.148 21.148 0 0 0-42.246-.056c-.033.689-.033 1.379 0 2.068a21.148 21.148 0 0 0 42.246.056c.033-.688.033-1.379 0-2.068zM43.024 59.65a8.984 8.984 0 0 1-6.6-1.509c-4.2-3.017-7.19-9.111-7.6-16.271a3.072 3.072 0 0 1-1.361.325 2.5 2.5 0 0 1-2.633-2.544 2.535 2.535 0 0 1 2.495-2.575h.138a2.8 2.8 0 0 1 1.361.325v.917a2.409 2.409 0 0 0-1.361-.444 1.7 1.7 0 0 0-1.774 1.626v.119a1.726 1.726 0 0 0 1.706 1.747h.1a2.312 2.312 0 0 0 1.272-.384v-.74c0-9.467 4.555-17.424 10.62-19.377a8.783 8.783 0 0 1 4.378-.237 19.8 19.8 0 0 1-.74 39.021z" class="cls-2" transform="translate(-18.947 -18.947)"/>
        </g>
    </g>
</svg>
