<svg xmlns="http://www.w3.org/2000/svg" width="21" height="21" viewBox="0 0 21 21">
    <g fill="#006CE6" fill-rule="evenodd">
        <path d="M8 11.546A.546.546 0 0 0 7.453 11H5.546a.546.546 0 0 0-.546.546v1.907c0 .302.245.547.546.547h1.907A.546.546 0 0 0 8 13.453v-1.907zM12 11.546a.546.546 0 0 0-.546-.546H9.546a.546.546 0 0 0-.546.546v1.907c0 .302.245.547.546.547h1.908a.546.546 0 0 0 .546-.547v-1.907zM16 11.546a.546.546 0 0 0-.546-.546h-1.907a.546.546 0 0 0-.547.546v1.907c0 .302.245.547.547.547h1.907a.546.546 0 0 0 .546-.547v-1.907zM8 15.546A.546.546 0 0 0 7.453 15H5.546a.546.546 0 0 0-.546.546v1.908c0 .302.245.546.546.546h1.907A.546.546 0 0 0 8 17.454v-1.908zM12 15.546a.546.546 0 0 0-.546-.546H9.546a.546.546 0 0 0-.546.546v1.908c0 .302.245.546.546.546h1.908a.546.546 0 0 0 .546-.546v-1.908zM16 15.546a.546.546 0 0 0-.546-.546h-1.907a.546.546 0 0 0-.547.546v1.908c0 .302.245.546.547.546h1.907a.546.546 0 0 0 .546-.546v-1.908z"/>
        <path fill-rule="nonzero" d="M19.13 2.01v2.584c0 1.169-.952 2.11-2.126 2.11h-1.341c-1.174 0-2.14-.941-2.14-2.11V2H7.477v2.594c0 1.169-.965 2.11-2.14 2.11H3.997a2.117 2.117 0 0 1-2.127-2.11V2.01A1.929 1.929 0 0 0 0 3.923v15.15A1.93 1.93 0 0 0 1.925 21h17.15C20.137 21 21 20.13 21 19.073V3.923a1.929 1.929 0 0 0-1.87-1.914zm-.622 16.12a.83.83 0 0 1-.833.828H3.288a.83.83 0 0 1-.832-.828v-7.826a.83.83 0 0 1 .832-.828h14.387c.46 0 .833.37.833.828v7.826z"/>
        <path d="M3.785 6h1.43A.775.775 0 0 0 6 5.235V.765A.775.775 0 0 0 5.215 0h-1.43A.775.775 0 0 0 3 .765v4.47c0 .423.352.765.785.765zM15.786 6h1.429A.775.775 0 0 0 18 5.235V.765A.775.775 0 0 0 17.215 0h-1.43A.776.776 0 0 0 15 .765v4.47c0 .423.352.765.786.765z"/>
    </g>
</svg>
