<?xml version="1.0" encoding="utf-8"?>
<!-- Generator: Adobe Illustrator 24.1.0, SVG Export Plug-In . SVG Version: 6.00 Build 0)  -->
<svg version="1.1" id="Layer_1" xmlns="http://www.w3.org/2000/svg" xmlns:xlink="http://www.w3.org/1999/xlink" x="0px" y="0px"
	 viewBox="0 0 46 37" style="enable-background:new 0 0 46 37;" xml:space="preserve">
<style type="text/css">
	.st0{opacity:0.5;fill:#A9A9AB;enable-background:new    ;}
	.st1{fill:#B76F3F;}
	.st2{fill:#8C4320;}
	.st3{fill:#9C480C;}
	.st4{fill:#EFD995;}
	.st5{fill:#FFEDB4;}
	.st6{fill:#AB774D;}
	.st7{fill:#E6E1E4;}
	.st8{fill:#C39055;}
	.st9{fill:#F9F9F9;}
	.st10{fill:#F1F1F1;}
	.st11{fill:#B3A4AD;}
	.st12{fill:#D9AF6A;}
	.st13{fill:#9D6F40;}
	.st14{fill:#D6D6D6;}
	.st15{fill:#A45823;}
	.st16{fill:#FEFEFE;}
	.st17{fill:#8B8B8B;}
	.st18{fill:#6F6F6F;}
	.st19{fill:#8E8E8E;}
</style>
<g id="Group_5392" transform="translate(-187.657 -34.02)">
	<path id="Path_9791" class="st0" d="M225.2,65.15l8.34-4.73l-13.84-8.4l-14.98-6.87l-0.49,25.59L225.2,65.15z"/>
	<g id="Group_5391" transform="translate(187.657 34.02)">
		<g id="Group_5390">
			<g id="Group_5389">
				<path id="Path_9792" class="st1" d="M16.58,36.73l16.58-9.57V9.85l-16.58,9.57L16.58,36.73z"/>
				<path id="Path_9793" class="st2" d="M33.17,9.85v17.3l-16.58,9.57l16.1-9.85L33.17,9.85z"/>
				<path id="Path_9794" class="st3" d="M26.2,31.23V13.87l-2.63,1.52V32.9L26.2,31.23z"/>
				<path id="Path_9795" class="st4" d="M16.58,19.42l16.58-9.57L16.58,0.27L0,9.85L16.58,19.42z"/>
				<path id="Path_9796" class="st5" d="M1.22,9.85l15.31,8.81l16.63-8.81l-16.58,9.57L0,9.85l16.58-9.58L1.22,9.85z"/>
				<path id="Path_9797" class="st6" d="M25.76,5.63L6.53,16.67l-2.91-1.65l22.07-9.46L25.76,5.63z"/>
				<path id="Path_9798" class="st7" d="M23.05,4.03l-6.88,3.84l2.73,1.57l6.78-3.9L23.05,4.03z"/>
				<path id="Path_9799" class="st7" d="M3.54,14.94l2.91,1.66l9.69-5.57l-2.81-1.56L3.54,14.94z"/>
				<path id="Path_9800" class="st8" d="M23.79,15.29L6.65,5.73l0.04,0.25l16.88,9.41L23.79,15.29z"/>
				<path id="Path_9801" class="st9" d="M13.34,9.46l2.81,1.56l2.76-1.58l-2.73-1.57L13.34,9.46z"/>
				<path id="Path_9802" class="st10" d="M18.91,9.45l-2.76,1.58l7.64,4.26l2.63-1.52L18.91,9.45z"/>
				<path id="Path_9803" class="st10" d="M6.65,5.73l6.7,3.73l2.83-1.59l-6.62-3.8L6.65,5.73z"/>
				<path id="Path_9804" class="st11" d="M26.42,31.12V13.76l-2.63,1.52v17.51L26.42,31.12z"/>
				<path id="Path_9805" class="st12" d="M16.58,36.73L0,27.15V9.85l16.58,9.57V36.73z"/>
				<path id="Path_9806" class="st13" d="M16.58,36.73L0,27.15v-0.3l16.58,9.57L16.58,36.73z"/>
				<path id="Path_9807" class="st3" d="M15.6,33.01l-4.72-2.73v-3.95l4.63,2.48l0.09,0.25L15.6,33.01z"/>
				<path id="Path_9808" class="st3" d="M6.34,30.8V13.5l2.84,1.64v17.3L6.34,30.8z"/>
				<path id="Path_9809" class="st14" d="M6.23,30.87V13.44l2.84,1.64v17.43L6.23,30.87z"/>
				<g id="Group_5388" transform="translate(28.176 11.315)">
					<g id="Group_5386">
						<path id="Path_9810" class="st15" d="M0,2.5l3.85-2.23v5.67L0,8.17V2.5z M3.5,0.89L0.36,2.7v4.85L3.5,5.74V0.89z"/>
					</g>
					<g id="Group_5387" transform="translate(0.711 2.009)">
						<path id="Path_9811" class="st15" d="M1.95,3.39L0.64,4.15V2.6l1.31-0.76V3.39z"/>
						<path id="Path_9812" class="st15" d="M2.59,1.48L0,2.98l1.29-2.71L2.59,1.48z"/>
					</g>
				</g>
			</g>
			<path id="Path_9813" class="st16" d="M15.42,28.88l-4.72-2.73l0.1-0.07l4.72,2.73L15.42,28.88z"/>
			<path id="Path_9814" class="st17" d="M15.42,32.83v-3.95l0.1-0.07v3.95L15.42,32.83z"/>
			<path id="Path_9815" class="st14" d="M15.42,32.83l-4.72-2.73v-3.95l4.72,2.73V32.83z"/>
			<path id="Path_9816" class="st18" d="M15.15,29.42L10.95,27v-0.25l4.2,2.43V29.42z"/>
			<path id="Path_9817" class="st19" d="M13.41,29.52l-2.46-1.42v-0.25l2.46,1.42V29.52z"/>
			<path id="Path_9818" class="st19" d="M15.13,32.18l-1.28-0.74v-2.12l1.28,0.74V32.18z"/>
			<path id="Path_9819" class="st19" d="M13.41,30.07l-2.46-1.42V28.4l2.46,1.42V30.07z"/>
			<path id="Path_9820" class="st19" d="M13.41,30.61l-2.46-1.42v-0.25l2.46,1.42V30.61z"/>
			<path id="Path_9821" class="st19" d="M13.41,31.15l-2.46-1.42v-0.25l2.46,1.42V31.15z"/>
		</g>
		<path id="Path_9822" class="st10" d="M8.5,12.17l-1.9,1.27l2.48,1.43v0.21l-2.84-1.64L8.5,12.17z"/>
	</g>
</g>
</svg>
