<?xml version="1.0" encoding="utf-8"?>
<!-- Generator: Adobe Illustrator 24.1.0, SVG Export Plug-In . SVG Version: 6.00 Build 0)  -->
<svg version="1.1" id="Layer_1" xmlns="http://www.w3.org/2000/svg" xmlns:xlink="http://www.w3.org/1999/xlink" x="0px" y="0px"
	 viewBox="0 0 24 17" style="enable-background:new 0 0 24 17;" xml:space="preserve">
<style type="text/css">
	.st0{fill:#EDF3F9;}
</style>
<g>
	<path class="st0" d="M23,0H9c0,0,0,0,0,0H3C2.45,0,2,0.45,2,1c0,0.55,0.45,1,1,1h4v2H6C5.45,4,5,4.45,5,5c0,0.55,0.45,1,1,1h2
		c0,0,0,0,0,0h15c0.55,0,1-0.45,1-1V1C24,0.45,23.55,0,23,0z"/>
	<path class="st0" d="M22,8H9c0,0,0,0,0,0H1C0.45,8,0,8.45,0,9c0,0.55,0.45,1,1,1h7v2H5c-0.55,0-1,0.45-1,1c0,0.55,0.45,1,1,1h3v2
		c0,0.55,0.45,1,1,1h13c0.55,0,1-0.45,1-1V9C23,8.45,22.55,8,22,8z"/>
	<circle class="st0" cx="1" cy="13" r="1"/>
	<circle class="st0" cx="3" cy="5" r="1"/>
</g>
</svg>
