<?xml version="1.0" encoding="utf-8"?>
<!-- Generator: Adobe Illustrator 24.1.0, SVG Export Plug-In . SVG Version: 6.00 Build 0)  -->
<svg version="1.1" id="Layer_1" xmlns="http://www.w3.org/2000/svg" xmlns:xlink="http://www.w3.org/1999/xlink" x="0px" y="0px"
	 viewBox="0 0 34 34" style="enable-background:new 0 0 34 34;" xml:space="preserve">
<style type="text/css">
	.st0{fill:url(#Ellipse_798-2_1_);}
	.st1{fill:none;stroke:#FFFFFF;stroke-width:3;stroke-linecap:round;stroke-linejoin:round;stroke-miterlimit:10;}
	.st2{fill:#FFFFFF;}
</style>
<g id="Group_7511" transform="translate(-21723 8704.065)">
	<g transform="matrix(1, 0, 0, 1, 21723, -8704.07)">
		
			<linearGradient id="Ellipse_798-2_1_" gradientUnits="userSpaceOnUse" x1="10.1176" y1="23.24" x2="9.1176" y2="24.24" gradientTransform="matrix(34 0 0 -34 -310 824.166)">
			<stop  offset="0" style="stop-color:#29C78A"/>
			<stop  offset="1" style="stop-color:#68D871"/>
		</linearGradient>
		<circle id="Ellipse_798-2" class="st0" cx="17" cy="17" r="17"/>
	</g>
	<g id="check" transform="translate(21744.234 -8680.184)">
		<path id="Shape" class="st1" d="M4.23-12L-6.93-1.17L-12-6.1"/>
		<g id="Shape-2">
			<path class="st2" d="M-6.93,0.33c-0.38,0-0.75-0.14-1.04-0.42l-5.07-4.92c-0.59-0.58-0.61-1.53-0.03-2.12
				c0.58-0.6,1.53-0.61,2.12-0.03l4.03,3.91l10.12-9.81c0.59-0.58,1.54-0.56,2.12,0.03c0.58,0.59,0.56,1.54-0.03,2.12L-5.88-0.1
				C-6.17,0.19-6.55,0.33-6.93,0.33z"/>
		</g>
	</g>
</g>
</svg>
