<?xml version="1.0" encoding="utf-8"?>
<!-- Generator: Adobe Illustrator 24.1.0, SVG Export Plug-In . SVG Version: 6.00 Build 0)  -->
<svg version="1.1" id="Layer_1" xmlns="http://www.w3.org/2000/svg" xmlns:xlink="http://www.w3.org/1999/xlink" x="0px" y="0px"
	 viewBox="0 0 20 21" style="enable-background:new 0 0 20 21;" xml:space="preserve">
<style type="text/css">
	.st0{fill:#EDF3F9;}
</style>
<path id="Path_11302" class="st0" d="M19,12.51L18.31,0.13h-1.69l-0.96,12.29h-1.05l-3.34-1.92l-0.05,1.87l-3.7-2.19v2.24
	l-3.74-2.28l0.05,2.24l-3.75-2.1v10.6h19.83v-8.36H19z M5.09,18.4H1.02v-0.96h4.07V18.4z M5.09,16.67H1.02v-0.96h4.07V16.67z
	 M9.7,18.4H5.63v-0.96H9.7V18.4z M9.7,16.67H5.63v-0.96H9.7V16.67z M14.31,18.4h-4.07v-0.96h4.07V18.4z M14.31,16.67h-4.07v-0.96
	h4.07V16.67z M18.98,18.4h-4.07v-0.96h4.07V18.4z M18.98,16.67h-4.07v-0.96h4.07V16.67z"/>
</svg>
