<?xml version="1.0" encoding="utf-8"?>
<!-- Generator: Adobe Illustrator 24.1.0, SVG Export Plug-In . SVG Version: 6.00 Build 0)  -->
<svg version="1.1" id="Layer_1" xmlns="http://www.w3.org/2000/svg" xmlns:xlink="http://www.w3.org/1999/xlink" x="0px" y="0px"
	 viewBox="0 0 72 44" style="enable-background:new 0 0 72 44;" xml:space="preserve">
<style type="text/css">
	.st0{fill:#5E515B;}
	.st1{fill:#6F5F6A;}
	.st2{fill:#4C434A;}
	.st3{opacity:0.6;fill:#4C434A;enable-background:new    ;}
	.st4{fill:#D1C9C9;}
	.st5{fill:#AA989A;}
	.st6{fill:#F8F4F5;}
	.st7{fill:#604348;}
	.st8{fill:#AA9B9E;}
	.st9{fill:#3C281E;}
	.st10{fill:#848387;}
	.st11{fill:#2D2421;}
	.st12{fill:#68686B;}
	.st13{fill:#21110A;}
	.st14{fill:#BC2F3D;}
	.st15{fill:url(#Path_11185_1_);}
	.st16{fill:#958383;}
	.st17{fill:url(#Path_11186_1_);}
	.st18{clip-path:url(#SVGID_2_);}
	.st19{fill:#7C7070;}
	.st20{fill:#605555;}
	.st21{clip-path:url(#SVGID_4_);}
	.st22{fill:#FF8E85;}
	.st23{fill:#E9646A;}
	.st24{fill:#FF0C10;}
</style>
<g>
	<g id="Group_7513" transform="translate(-320.736 24.177)">
		<path id="Path_11095" class="st0" d="M321.78,2.87l17.44,9.96l16.18-9.44l-17.44-9.96L321.78,2.87z"/>
		<path id="Path_11096" class="st1" d="M321.78,2.38l17.44,9.96l16.18-9.44l-17.44-9.96L321.78,2.38z"/>
		<path id="Path_11097" class="st0" d="M354.75,3.77l0.65-0.38V2.89l-0.82,0.48L354.75,3.77z"/>
		<path id="Path_11098" class="st2" d="M321.78,2.87l17.44,9.96v-0.49l-17.44-9.96V2.87z"/>
	</g>
	<g id="Group_7514" transform="translate(-300.649 25.413)">
		<path id="Path_11099" class="st0" d="M329.01,5.97l22.1,12.62l20.5-11.97L349.51-6L329.01,5.97z"/>
		<path id="Path_11100" class="st1" d="M329.01,5.34l22.1,12.62l20.5-11.97l-22.1-12.62L329.01,5.34z"/>
		<path id="Path_11101" class="st0" d="M370.78,7.1l0.83-0.48V6l-1.03,0.6L370.78,7.1z"/>
		<path id="Path_11102" class="st2" d="M329.01,5.97l22.1,12.62v-0.62l-22.1-12.62V5.97z"/>
	</g>
	<path id="Path_11103" class="st3" d="M14.64,24.64l0.64,5.39l5.74-3.08l-5.08-2.9L14.64,24.64z"/>
	<g id="Group_7541" transform="translate(-313.961 11.595)">
		<g id="Group_7534" transform="translate(0 4.404)">
			<g id="Group_7517">
				<g id="Group_7515" transform="translate(0 2.81)">
					<path id="Path_11104" class="st4" d="M324.22,1.97l16.92,9.77V0.77L324.22-9V1.97z"/>
				</g>
				<g id="Group_7516" transform="translate(12.444 7.181)">
					<path id="Path_11105" class="st5" d="M328.7-3.6V7.37l6.63-3.82V-7.42L328.7-3.6z"/>
				</g>
				<path id="Path_11106" class="st6" d="M324.22-6.19l16.92,9.77l6.63-3.83l-16.92-9.77L324.22-6.19z"/>
				<path id="Path_11107" class="st4" d="M330.86-9.18l15.69,9.16l0.5-0.3l-16.18-9.34L330.86-9.18z"/>
				<path id="Path_11108" class="st5" d="M325.19-5.97l5.67-3.22v-0.48l-6.06,3.49L325.19-5.97z"/>
			</g>
			<g id="Group_7519" transform="translate(0.362 4.248)">
				<path id="Path_11109" class="st7" d="M324.35-5.04L326.16-4v-3.44l-1.81-1.04V-5.04z"/>
				<path id="Path_11110" class="st8" d="M324.39-8.11l1.56,3.92l0.12,0.07l-1.57-4.17L324.39-8.11z"/>
				<path id="Path_11111" class="st8" d="M324.78-8.13l1.16,2.41l-1.05-2.34L324.78-8.13z"/>
				<path id="Path_11112" class="st8" d="M325.44-4.49l0.08-0.02l-0.82-1.7L325.44-4.49z"/>
				<g id="Group_7518">
					<path id="Path_11113" class="st9" d="M324.35-5.04L326.16-4v-3.44l-1.81-1.04V-5.04z M324.51-8.2L326-7.34v3.06l-1.49-0.86
						V-8.2z"/>
					<path id="Path_11114" class="st9" d="M324.39-7.72l1.69,0.97v-0.21l-1.69-0.97V-7.72z"/>
					<path id="Path_11115" class="st9" d="M325.17-4.65l0.16,0.1v-3.27l-0.16-0.1V-4.65z"/>
				</g>
			</g>
			<g id="Group_7521" transform="translate(2.429 5.439)">
				<path id="Path_11116" class="st7" d="M325.09-4.61l1.81,1.04v-3.44l-1.81-1.04V-4.61z"/>
				<path id="Path_11117" class="st8" d="M325.14-7.68l1.56,3.92l0.12,0.07l-1.57-4.17L325.14-7.68z"/>
				<path id="Path_11118" class="st8" d="M325.53-7.7l1.16,2.41l-1.05-2.34L325.53-7.7z"/>
				<path id="Path_11119" class="st8" d="M326.19-4.06l0.08-0.02l-0.82-1.7L326.19-4.06z"/>
				<g id="Group_7520" transform="translate(0 0)">
					<path id="Path_11120" class="st9" d="M325.09-4.61l1.81,1.04v-3.44l-1.81-1.04V-4.61z M325.25-7.77l1.49,0.86v3.06l-1.49-0.86
						V-7.77z"/>
					<path id="Path_11121" class="st9" d="M325.14-7.29l1.69,0.97v-0.21l-1.69-0.97V-7.29z"/>
					<path id="Path_11122" class="st9" d="M325.91-4.22l0.17,0.1V-7.4l-0.17-0.1V-4.22z"/>
				</g>
			</g>
			<g id="Group_7523" transform="translate(15.367 8.762)">
				<path id="Path_11123" class="st7" d="M329.75-2.38l1.81-1.04v-3.43l-1.81,1.04V-2.38z"/>
				<path id="Path_11124" class="st8" d="M329.83-2.5l0.12-0.07l1.56-3.92l-0.11-0.18L329.83-2.5z"/>
				<path id="Path_11125" class="st8" d="M329.96-4.1l1.16-2.41l-0.11,0.07L329.96-4.1z"/>
				<path id="Path_11126" class="st8" d="M330.46-2.87l0.74-1.72l-0.82,1.7L330.46-2.87z"/>
				<g id="Group_7522" transform="translate(0 0)">
					<path id="Path_11127" class="st9" d="M329.75-2.38l1.81-1.04v-3.43l-1.81,1.04V-2.38z M329.91-5.72l1.49-0.86v3.07l-1.49,0.86
						V-5.72z"/>
					<path id="Path_11128" class="st9" d="M329.83-5.12l1.69-0.97V-6.3l-1.69,0.97V-5.12z"/>
					<path id="Path_11129" class="st9" d="M330.57-2.93l0.16-0.1V-6.3l-0.16,0.1V-2.93z"/>
				</g>
			</g>
			<g id="Group_7525" transform="translate(13.299 9.953)">
				<path id="Path_11130" class="st7" d="M329-5.38v3.44l1.81-1.04v-3.44L329-5.38z"/>
				<path id="Path_11131" class="st8" d="M329.08-2.07l0.12-0.07l1.56-3.92l-0.11-0.18L329.08-2.07z"/>
				<path id="Path_11132" class="st8" d="M329.22-3.67l1.16-2.41l-0.11,0.07L329.22-3.67z"/>
				<path id="Path_11133" class="st8" d="M329.72-2.44l0.74-1.72l-0.82,1.7L329.72-2.44z"/>
				<g id="Group_7524" transform="translate(0 0)">
					<path id="Path_11134" class="st9" d="M329-5.38v3.44l1.81-1.04v-3.44L329-5.38z M330.65-3.08l-1.49,0.86v-3.06l1.49-0.86V-3.08
						z"/>
					<path id="Path_11135" class="st9" d="M329.08-4.7l1.69-0.97v-0.21l-1.69,0.97V-4.7z"/>
					<path id="Path_11136" class="st9" d="M329.83-2.5l0.16-0.1v-3.27l-0.16,0.1V-2.5z"/>
				</g>
			</g>
			<g id="Group_7527" transform="translate(4.374 6.564)">
				<path id="Path_11137" class="st7" d="M325.79-4.21l1.81,1.04V-6.6l-1.81-1.04V-4.21z"/>
				<path id="Path_11138" class="st8" d="M325.84-7.28l1.56,3.92l0.12,0.07l-1.57-4.17L325.84-7.28z"/>
				<path id="Path_11139" class="st8" d="M326.23-7.3l1.16,2.41l-1.05-2.34L326.23-7.3z"/>
				<path id="Path_11140" class="st8" d="M326.89-3.65l0.08-0.02l-0.82-1.7L326.89-3.65z"/>
				<g id="Group_7526" transform="translate(0 0)">
					<path id="Path_11141" class="st9" d="M325.79-4.21l1.81,1.04V-6.6l-1.81-1.04V-4.21z M325.95-7.37l1.49,0.86v3.07l-1.49-0.86
						V-7.37z"/>
					<path id="Path_11142" class="st9" d="M325.84-6.89l1.69,0.97v-0.2l-1.69-0.97V-6.89z"/>
					<path id="Path_11143" class="st9" d="M326.61-3.81l0.16,0.1v-3.28l-0.16-0.1V-3.81z"/>
				</g>
			</g>
			<g id="Group_7529" transform="translate(6.523 7.803)">
				<path id="Path_11144" class="st7" d="M326.56-3.76l1.81,1.04v-3.44l-1.81-1.04V-3.76z"/>
				<path id="Path_11145" class="st8" d="M326.61-6.83l1.56,3.92l0.12,0.07l-1.57-4.17L326.61-6.83z"/>
				<path id="Path_11146" class="st8" d="M327-6.85l1.16,2.41l-1.05-2.34L327-6.85z"/>
				<path id="Path_11147" class="st8" d="M327.66-3.21l0.08-0.02l-0.82-1.7L327.66-3.21z"/>
				<g id="Group_7528" transform="translate(0 0)">
					<path id="Path_11148" class="st9" d="M326.56-3.76l1.81,1.04v-3.44l-1.81-1.04V-3.76z M326.73-6.92l1.49,0.86V-3l-1.49-0.86
						L326.73-6.92z"/>
					<path id="Path_11149" class="st9" d="M326.61-6.44l1.69,0.97v-0.21l-1.69-0.97V-6.44z"/>
					<path id="Path_11150" class="st9" d="M327.39-3.37l0.17,0.1v-3.27l-0.17-0.1V-3.37z"/>
				</g>
			</g>
			<g id="Group_7531" transform="translate(8.673 9.041)">
				<path id="Path_11151" class="st7" d="M327.34-3.32l1.81,1.04v-3.44l-1.81-1.04V-3.32z"/>
				<path id="Path_11152" class="st8" d="M327.39-6.39l1.56,3.92l0.12,0.07l-1.57-4.17L327.39-6.39z"/>
				<path id="Path_11153" class="st8" d="M327.77-6.41L328.94-4l-1.05-2.34L327.77-6.41z"/>
				<path id="Path_11154" class="st8" d="M328.44-2.77l0.08-0.02l-0.82-1.7L328.44-2.77z"/>
				<g id="Group_7530" transform="translate(0 0)">
					<path id="Path_11155" class="st9" d="M327.34-3.32l1.81,1.04v-3.44l-1.81-1.04V-3.32z M327.5-6.48l1.49,0.86v3.07l-1.49-0.86
						V-6.48z"/>
					<path id="Path_11156" class="st9" d="M327.39-6l1.69,0.97v-0.2l-1.69-0.97V-6z"/>
					<path id="Path_11157" class="st9" d="M328.16-2.93l0.16,0.1V-6.1l-0.16-0.1V-2.93z"/>
				</g>
			</g>
			<g id="Group_7533" transform="translate(10.751 10.24)">
				<path id="Path_11158" class="st7" d="M328.09-2.89l1.81,1.04v-3.43l-1.81-1.04V-2.89z"/>
				<path id="Path_11159" class="st8" d="M328.14-5.95l1.56,3.92l0.12,0.07l-1.57-4.17L328.14-5.95z"/>
				<path id="Path_11160" class="st8" d="M328.52-5.98l1.16,2.41l-1.05-2.34L328.52-5.98z"/>
				<path id="Path_11161" class="st8" d="M329.18-2.34l0.08-0.02l-0.82-1.7L329.18-2.34z"/>
				<g id="Group_7532" transform="translate(0 0)">
					<path id="Path_11162" class="st9" d="M328.09-2.89l1.81,1.04v-3.43l-1.81-1.04V-2.89z M328.25-6.04l1.49,0.86v3.07l-1.49-0.86
						V-6.04z"/>
					<path id="Path_11163" class="st9" d="M328.14-5.56l1.69,0.97V-4.8l-1.69-0.97V-5.56z"/>
					<path id="Path_11164" class="st9" d="M328.91-2.49l0.17,0.1v-3.27l-0.17-0.1V-2.49z"/>
				</g>
			</g>
		</g>
		<g id="Group_7536" transform="translate(3.162 0)">
			<path id="Path_11165" class="st10" d="M325.36-1.2c0.08,0.94,1.5,1.11,1.5,1.11c0.57,0.09,1.15,0.02,1.69-0.19
				c0.83-0.36,0.79-0.92,0.79-0.92v-0.29l-3.98,0.08L325.36-1.2z"/>
			<ellipse id="Ellipse_799" class="st11" cx="327.35" cy="-1.4" rx="1.99" ry="1.15"/>
			<path id="Path_11166" class="st10" d="M325.85-10.73l-0.3,9.28c0.07,0.86,1.36,1.01,1.36,1.01c0.52,0.08,1.05,0.02,1.53-0.18
				c0.75-0.33,0.72-0.84,0.72-0.84l-0.3-9.28L325.85-10.73z"/>
			<path id="Path_11167" class="st12" d="M328.37-10.74c0.38,9.06-1.33,10.31-1.33,10.31c0.28,0.03,0.56,0.02,0.83-0.03
				c1.27-0.22,1.28-1,1.28-1l-0.3-9.28L328.37-10.74z"/>
			<ellipse id="Ellipse_800" class="st13" cx="327.35" cy="-10.73" rx="1.5" ry="0.87"/>
			<g id="Group_7535" transform="translate(0 1.816)">
				<path id="Path_11168" class="st14" d="M328.84-10.91c-0.87,0.64-2.05,0.65-2.93,0.02c-0.1-0.09-0.26-0.07-0.34,0.03
					c-0.09,0.1-0.08,0.26,0.03,0.34c0,0,0,0,0,0c0.5,0.37,1.1,0.56,1.72,0.56c0.63-0.01,1.25-0.2,1.78-0.54
					c0.12-0.07,0.15-0.22,0.08-0.33c0,0,0,0,0,0C329.1-10.94,328.95-10.98,328.84-10.91z"/>
				<path id="Path_11169" class="st14" d="M328.92-8.67c-0.97,0.54-2.15,0.54-3.11,0c-0.11-0.07-0.26-0.04-0.34,0.08
					c-0.07,0.11-0.04,0.26,0.08,0.34c0.56,0.32,1.19,0.48,1.84,0.48c0.62,0,1.23-0.17,1.77-0.48c0.12-0.07,0.16-0.22,0.09-0.33
					C329.18-8.7,329.03-8.73,328.92-8.67z"/>
				<path id="Path_11170" class="st14" d="M329-6.4c-1.05,0.47-2.25,0.47-3.3,0c-0.12-0.06-0.27-0.01-0.33,0.11c0,0,0,0,0,0
					c-0.06,0.12-0.01,0.27,0.11,0.33c0.61,0.28,1.28,0.42,1.95,0.42c0.62,0.01,1.23-0.14,1.78-0.43c0.12-0.06,0.16-0.21,0.1-0.33
					C329.27-6.41,329.12-6.46,329-6.4z"/>
			</g>
		</g>
		<g id="Group_7538" transform="translate(7.003 2.25)">
			<path id="Path_11171" class="st10" d="M326.74-0.39c0.08,0.94,1.5,1.11,1.5,1.11c0.57,0.09,1.15,0.02,1.69-0.19
				c0.83-0.36,0.79-0.92,0.79-0.92v-0.29l-3.98,0.08L326.74-0.39z"/>
			<path id="Path_11172" class="st11" d="M330.14-1.41c-0.88-0.45-1.93-0.45-2.81,0c-0.45,0.15-0.69,0.64-0.54,1.09
				c0.09,0.25,0.28,0.45,0.54,0.54c0.88,0.45,1.93,0.45,2.81,0c0.45-0.15,0.69-0.64,0.54-1.09C330.59-1.12,330.39-1.32,330.14-1.41z
				"/>
			<path id="Path_11173" class="st10" d="M327.23-9.92l-0.3,9.28c0.07,0.86,1.36,1.01,1.36,1.01c0.52,0.08,1.05,0.02,1.53-0.18
				c0.75-0.33,0.72-0.83,0.72-0.83l-0.3-9.28H327.23z"/>
			<path id="Path_11174" class="st12" d="M329.76-9.93c0.38,9.06-1.33,10.31-1.33,10.31c0.28,0.03,0.56,0.02,0.83-0.03
				c1.27-0.22,1.28-1,1.28-1l-0.3-9.28H329.76z"/>
			<path id="Path_11175" class="st13" d="M329.79-10.53c-0.67-0.34-1.45-0.34-2.12,0c-0.34,0.11-0.52,0.48-0.41,0.82
				c0.06,0.19,0.21,0.34,0.41,0.41c0.67,0.34,1.45,0.34,2.12,0c0.34-0.11,0.52-0.48,0.41-0.82
				C330.13-10.32,329.98-10.47,329.79-10.53z"/>
			<g id="Group_7537" transform="translate(0 1.816)">
				<path id="Path_11176" class="st14" d="M330.22-10.09c-0.87,0.64-2.05,0.65-2.93,0.02c-0.1-0.09-0.26-0.07-0.34,0.03
					c-0.09,0.1-0.07,0.26,0.03,0.34c0.5,0.37,1.1,0.56,1.72,0.56c0.63-0.01,1.25-0.2,1.78-0.54c0.12-0.07,0.15-0.22,0.08-0.33
					c0,0,0,0,0,0C330.48-10.13,330.33-10.17,330.22-10.09z"/>
				<path id="Path_11177" class="st14" d="M330.3-7.86c-0.97,0.54-2.15,0.54-3.11,0c-0.11-0.07-0.26-0.04-0.34,0.08
					c-0.07,0.11-0.04,0.26,0.08,0.34c0.56,0.32,1.19,0.48,1.84,0.48c0.62,0,1.23-0.17,1.77-0.48c0.12-0.07,0.16-0.22,0.09-0.33
					C330.56-7.89,330.42-7.92,330.3-7.86z"/>
				<path id="Path_11178" class="st14" d="M330.38-5.59c-1.05,0.47-2.25,0.47-3.3,0c-0.12-0.06-0.27-0.01-0.33,0.11c0,0,0,0,0,0
					c-0.06,0.12-0.01,0.27,0.11,0.33c0.61,0.28,1.28,0.42,1.95,0.42c0.62,0.01,1.23-0.14,1.78-0.43c0.12-0.06,0.16-0.21,0.1-0.33
					C330.65-5.6,330.51-5.65,330.38-5.59C330.39-5.59,330.38-5.59,330.38-5.59z"/>
			</g>
		</g>
		<g id="Group_7540" transform="translate(10.372 4.206)">
			<path id="Path_11179" class="st10" d="M327.96,0.32c0.08,0.94,1.5,1.11,1.5,1.11c0.57,0.09,1.15,0.02,1.69-0.19
				c0.83-0.36,0.8-0.92,0.8-0.92V0.03l-3.98,0.08L327.96,0.32z"/>
			<ellipse id="Ellipse_801" class="st11" cx="329.95" cy="0.11" rx="1.99" ry="1.15"/>
			<path id="Path_11180" class="st10" d="M328.45-9.21l-0.3,9.28c0.07,0.86,1.36,1.01,1.36,1.01c0.52,0.08,1.05,0.02,1.53-0.18
				c0.75-0.33,0.72-0.84,0.72-0.84l-0.3-9.28L328.45-9.21z"/>
			<path id="Path_11181" class="st12" d="M330.97-9.22c0.38,9.06-1.33,10.31-1.33,10.31c0.28,0.03,0.56,0.02,0.83-0.03
				c1.27-0.22,1.28-1,1.28-1l-0.3-9.28H330.97z"/>
			<ellipse id="Ellipse_802" class="st13" cx="329.95" cy="-9.21" rx="1.5" ry="0.87"/>
			<g id="Group_7539" transform="translate(0 1.817)">
				<path id="Path_11182" class="st14" d="M331.43-9.39c-0.87,0.64-2.05,0.65-2.93,0.02c-0.1-0.09-0.26-0.07-0.34,0.03
					c-0.09,0.1-0.08,0.26,0.03,0.34c0,0,0,0,0,0c0.5,0.37,1.1,0.56,1.72,0.56c0.63-0.01,1.25-0.2,1.78-0.54
					c0.12-0.07,0.15-0.22,0.08-0.34C331.7-9.43,331.55-9.47,331.43-9.39z"/>
				<path id="Path_11183" class="st14" d="M331.51-7.16c-0.97,0.54-2.15,0.54-3.11,0c-0.11-0.07-0.26-0.04-0.34,0.08
					c-0.07,0.11-0.04,0.26,0.08,0.34c0.56,0.32,1.19,0.48,1.84,0.48c0.62,0,1.23-0.17,1.77-0.48c0.12-0.07,0.16-0.21,0.09-0.33
					c0,0,0,0,0,0C331.77-7.18,331.63-7.22,331.51-7.16z"/>
				<path id="Path_11184" class="st14" d="M331.6-4.88c-1.05,0.47-2.25,0.47-3.3,0c-0.12-0.06-0.27-0.01-0.33,0.11
					c-0.06,0.12-0.01,0.27,0.11,0.33c0.61,0.28,1.28,0.42,1.95,0.42c0.62,0.01,1.23-0.14,1.78-0.43c0.12-0.06,0.16-0.21,0.1-0.33
					c0,0,0,0,0,0C331.87-4.9,331.72-4.95,331.6-4.88C331.6-4.88,331.6-4.88,331.6-4.88z"/>
			</g>
		</g>
	</g>
	<g id="Group_7569" transform="translate(-295.219 11.771)">
		
			<linearGradient id="Path_11185_1_" gradientUnits="userSpaceOnUse" x1="331.816" y1="15.8247" x2="333.1761" y2="15.8247" gradientTransform="matrix(10.3694 0 0 -16.7011 -3101.9958 268.459)">
			<stop  offset="0" style="stop-color:#F1EDEC"/>
			<stop  offset="0.194" style="stop-color:#EDE8E7"/>
			<stop  offset="0.408" style="stop-color:#E2DBDA"/>
			<stop  offset="0.631" style="stop-color:#D0C5C4"/>
			<stop  offset="0.86" style="stop-color:#B6A6A6"/>
			<stop  offset="1" style="stop-color:#A49090"/>
		</linearGradient>
		<path id="Path_11185" class="st15" d="M350.34,0.33c0.11-2.53,0.43-5.04,0.95-7.52h-11.03c0.64,2.49,0.93,5.05,0.86,7.62
			c-0.29,3.22-2.44,9.73-2.38,10.64c0,0-0.64,4.29,7.04,4.45c7.68,0.16,7.04-4.45,7.04-4.45S350.26,3.95,350.34,0.33z"/>
		<ellipse id="Ellipse_803" class="st16" cx="345.78" cy="-8.19" rx="5.79" ry="3.34"/>
		<g id="Group_7543" transform="translate(12.932 4.221)">
			
				<linearGradient id="Path_11186_1_" gradientUnits="userSpaceOnUse" x1="319.1349" y1="11.5117" x2="320.4948" y2="11.5117" gradientTransform="matrix(10.3694 0 0 -16.7001 -2973.6072 197.9347)">
				<stop  offset="0" style="stop-color:#F1EDEC"/>
				<stop  offset="0.194" style="stop-color:#EDE8E7"/>
				<stop  offset="0.408" style="stop-color:#E2DBDA"/>
				<stop  offset="0.631" style="stop-color:#D0C5C4"/>
				<stop  offset="0.86" style="stop-color:#B6A6A6"/>
				<stop  offset="1" style="stop-color:#A49090"/>
			</linearGradient>
			<path id="Path_11186" class="st17" d="M347.24,1.85c0.11-2.53,0.43-5.04,0.95-7.52h-11.03c0.64,2.49,0.92,5.05,0.86,7.62
				c-0.29,3.22-2.44,9.73-2.38,10.64c0,0-0.64,4.29,7.04,4.45c7.68,0.16,7.04-4.45,7.04-4.45S347.14,5.46,347.24,1.85z"/>
			<path id="Path_11187" class="st16" d="M346.77-9.03c-2.57-1.31-5.62-1.31-8.19,0c-2.26,1.31-2.26,3.42,0,4.73
				c2.57,1.31,5.62,1.31,8.19,0C349.03-5.61,349.03-7.73,346.77-9.03z"/>
		</g>
		<g id="Group_7553" transform="translate(0 8.934)">
			<g id="Group_7546">
				<g id="Group_7544" transform="translate(0 3.051)">
					<path id="Path_11188" class="st4" d="M330.96,4.7l18.37,10.61V3.39L330.96-7.22L330.96,4.7z"/>
				</g>
				<g id="Group_7545" transform="translate(13.51 7.797)">
					<path id="Path_11189" class="st5" d="M335.83-1.36v11.91l7.19-4.15V-5.51L335.83-1.36z"/>
				</g>
				<path id="Path_11190" class="st6" d="M330.96-4.17l18.37,10.61l7.19-4.15L338.16-8.32L330.96-4.17z"/>
				<path id="Path_11191" class="st4" d="M338.18-7.42l17.03,9.94l0.54-0.32L338.17-7.95L338.18-7.42z"/>
				<path id="Path_11192" class="st5" d="M332.02-3.93l6.16-3.49v-0.52l-6.58,3.79L332.02-3.93z"/>
			</g>
			<g id="Group_7547" transform="translate(0.849 4.326)">
				<path id="Path_11193" class="st7" d="M331.27-1.22l2.92,1.68v-5.54l-2.92-1.68V-1.22z"/>
				<path id="Path_11194" class="st8" d="M331.35-6.16l2.52,6.31l0.19,0.11l-2.53-6.72L331.35-6.16z"/>
				<path id="Path_11195" class="st8" d="M331.97-6.2l1.87,3.88l-1.69-3.78L331.97-6.2z"/>
				<path id="Path_11196" class="st8" d="M333.04-0.33l0.14-0.03l-1.32-2.75L333.04-0.33z"/>
				<path id="Path_11197" class="st9" d="M331.27-1.22l2.92,1.68v-5.54l-2.92-1.68V-1.22z M331.53-6.31l2.4,1.38v4.94l-2.4-1.38
					V-6.31z"/>
			</g>
			<g id="Group_7548" transform="translate(4.016 6.055)">
				<path id="Path_11198" class="st7" d="M332.41-0.6l2.92,1.68v-5.55l-2.92-1.68V-0.6z"/>
				<path id="Path_11199" class="st8" d="M332.49-5.54l2.52,6.31l0.19,0.11l-2.53-6.72L332.49-5.54z"/>
				<path id="Path_11200" class="st8" d="M333.11-5.58l1.87,3.88l-1.69-3.78L333.11-5.58z"/>
				<path id="Path_11201" class="st8" d="M334.18,0.29l0.14-0.03l-1.32-2.75L334.18,0.29z"/>
				<path id="Path_11202" class="st9" d="M332.41-0.6l2.92,1.68v-5.54l-2.92-1.68V-0.6z M332.67-5.69l2.4,1.38v4.94l-2.4-1.38V-5.69
					z"/>
			</g>
			<g id="Group_7549" transform="translate(7.182 7.939)">
				<path id="Path_11203" class="st7" d="M333.55,0.09l2.92,1.68v-5.55l-2.92-1.68V0.09z"/>
				<path id="Path_11204" class="st8" d="M333.63-4.86l2.52,6.31l0.19,0.11l-2.53-6.72L333.63-4.86z"/>
				<path id="Path_11205" class="st8" d="M334.25-4.9l1.87,3.88l-1.69-3.78L334.25-4.9z"/>
				<path id="Path_11206" class="st8" d="M335.32,0.97l0.14-0.03l-1.32-2.75L335.32,0.97z"/>
				<path id="Path_11207" class="st9" d="M333.55,0.09l2.92,1.68v-5.55l-2.92-1.68V0.09z M333.81-5l2.4,1.38v4.93l-2.4-1.38V-5z"/>
			</g>
			<g id="Group_7550" transform="translate(10.349 9.747)">
				<path id="Path_11208" class="st7" d="M334.69,0.73l2.92,1.68v-5.54l-2.92-1.68V0.73z"/>
				<path id="Path_11209" class="st8" d="M334.77-4.21l2.52,6.31l0.19,0.11l-2.53-6.71L334.77-4.21z"/>
				<path id="Path_11210" class="st8" d="M335.39-4.25l1.87,3.88l-1.69-3.78L335.39-4.25z"/>
				<path id="Path_11211" class="st8" d="M336.46,1.62l0.14-0.03l-1.33-2.75L336.46,1.62z"/>
				<path id="Path_11212" class="st9" d="M334.69,0.73l2.92,1.68v-5.54l-2.92-1.68V0.73z M334.95-4.36l2.4,1.38v4.94l-2.4-1.38
					L334.95-4.36z"/>
			</g>
			<g id="Group_7551" transform="translate(16.626 8.484)">
				<path id="Path_11213" class="st7" d="M336.95,1.39l2.69-1.55v-5.1l-2.69,1.55V1.39z"/>
				<path id="Path_11214" class="st8" d="M337.06,1.2l0.18-0.1l2.32-5.81l-0.17-0.27L337.06,1.2z"/>
				<path id="Path_11215" class="st8" d="M337.27-1.17l1.72-3.57l-0.17,0.1L337.27-1.17z"/>
				<path id="Path_11216" class="st8" d="M338.01,0.66l1.1-2.55l-1.22,2.53L338.01,0.66z"/>
				<path id="Path_11217" class="st9" d="M336.95,1.39l2.69-1.55v-5.1l-2.69,1.55V1.39z M337.19-3.57l2.21-1.27v4.55l-2.21,1.27
					V-3.57z"/>
			</g>
			<g id="Group_7552" transform="translate(13.709 10.075)">
				<path id="Path_11218" class="st7" d="M335.9,1.96l2.69-1.55v-5.1l-2.69,1.55V1.96z"/>
				<path id="Path_11219" class="st8" d="M336.01,1.78l0.18-0.1l2.32-5.81l-0.17-0.27L336.01,1.78z"/>
				<path id="Path_11220" class="st8" d="M336.22-0.6l1.72-3.57l-0.17,0.1L336.22-0.6z"/>
				<path id="Path_11221" class="st8" d="M336.96,1.23l1.1-2.55l-1.22,2.53L336.96,1.23z"/>
				<path id="Path_11222" class="st9" d="M335.9,1.96l2.69-1.55v-5.1l-2.69,1.55V1.96z M336.14-3l2.21-1.27v4.55l-2.21,1.27V-3z"/>
			</g>
		</g>
		<g id="Group_7556" transform="translate(1.59 9.851)">
			<g id="Group_7554" transform="translate(0.006 0.329)">
				<path id="Path_11223" class="st4" d="M331.88-4.95l4.7,2.71l4.7-2.71l-4.7-2.71L331.88-4.95z"/>
				<path id="Path_11224" class="st4" d="M331.54-4.95l5.05,2.91l5.05-2.91l-5.05-2.91L331.54-4.95z M336.59-2.44l-4.35-2.51
					l4.35-2.51l4.35,2.51L336.59-2.44z"/>
				<path id="Path_11225" class="st4" d="M332.34-4.79l0.31,0.18l4.61-2.66l-0.31-0.18L332.34-4.79z"/>
				<path id="Path_11226" class="st4" d="M332.89-4.42l0.31,0.18l4.61-2.66l-0.31-0.18L332.89-4.42z"/>
				<path id="Path_11227" class="st4" d="M333.59-4.11l0.31,0.18l4.61-2.66l-0.31-0.18L333.59-4.11z"/>
				<path id="Path_11228" class="st4" d="M334.13-3.74l0.31,0.18l4.61-2.66l-0.31-0.18L334.13-3.74z"/>
				<path id="Path_11229" class="st4" d="M334.71-3.39l0.31,0.18l4.61-2.66l-0.31-0.18L334.71-3.39z"/>
				<path id="Path_11230" class="st4" d="M335.25-3.02l0.31,0.18l4.61-2.66l-0.31-0.18L335.25-3.02z"/>
				<path id="Path_11231" class="st4" d="M335.95-2.7l0.31,0.18l4.61-2.66l-0.31-0.18L335.95-2.7z"/>
			</g>
			<g id="Group_7555">
				<path id="Path_11232" class="st8" d="M331.89-5.07l4.7,2.71l4.7-2.71l-4.7-2.71L331.89-5.07z"/>
				<path id="Path_11233" class="st9" d="M331.54-5.07l5.05,2.91l5.05-2.91l-5.05-2.91L331.54-5.07z M336.58-2.56l-4.35-2.51
					l4.35-2.51l4.35,2.51L336.58-2.56z"/>
				<path id="Path_11234" class="st9" d="M332.35-4.91l0.31,0.18l4.61-2.66l-0.31-0.18L332.35-4.91z"/>
				<path id="Path_11235" class="st9" d="M332.89-4.55l0.31,0.18l4.61-2.66l-0.31-0.18L332.89-4.55z"/>
				<path id="Path_11236" class="st9" d="M333.59-4.22l0.31,0.18l4.61-2.66l-0.31-0.18L333.59-4.22z"/>
				<path id="Path_11237" class="st9" d="M334.13-3.85l0.31,0.18l4.61-2.66l-0.31-0.18L334.13-3.85z"/>
				<path id="Path_11238" class="st9" d="M334.71-3.51l0.31,0.18l4.61-2.66l-0.31-0.18L334.71-3.51z"/>
				<path id="Path_11239" class="st9" d="M335.25-3.14l0.31,0.18l4.61-2.66l-0.31-0.18L335.25-3.14z"/>
				<path id="Path_11240" class="st9" d="M335.95-2.82l0.31,0.18l4.61-2.66l-0.31-0.18L335.95-2.82z"/>
			</g>
			<path id="Path_11241" class="st4" d="M331.54-4.62l0.91,0.52l0.06-0.41l-0.98-0.57L331.54-4.62z"/>
			<path id="Path_11242" class="st5" d="M336.58-2.16l0.01,0.45l5.05-2.91l-0.01-0.45L336.58-2.16z"/>
		</g>
		<g id="Group_7559" transform="translate(5.686 12.306)">
			<g id="Group_7557" transform="translate(0.006 0.328)">
				<path id="Path_11243" class="st4" d="M333.36-4.07l4.7,2.71l4.7-2.71l-4.7-2.71L333.36-4.07z"/>
				<path id="Path_11244" class="st4" d="M333.01-4.07l5.05,2.91l5.05-2.91l-5.05-2.91L333.01-4.07z M338.06-1.56l-4.35-2.51
					l4.35-2.51l4.35,2.51L338.06-1.56z"/>
				<path id="Path_11245" class="st4" d="M333.82-3.91l0.31,0.18l4.61-2.66l-0.31-0.18L333.82-3.91z"/>
				<path id="Path_11246" class="st4" d="M334.36-3.54l0.31,0.18l4.61-2.66l-0.31-0.18L334.36-3.54z"/>
				<path id="Path_11247" class="st4" d="M335.07-3.22l0.31,0.18l4.61-2.66l-0.31-0.18L335.07-3.22z"/>
				<path id="Path_11248" class="st4" d="M335.61-2.85l0.31,0.18l4.61-2.66l-0.31-0.18L335.61-2.85z"/>
				<path id="Path_11249" class="st4" d="M336.19-2.5l0.31,0.18l4.61-2.66l-0.31-0.18L336.19-2.5z"/>
				<path id="Path_11250" class="st4" d="M336.72-2.14l0.31,0.18l4.61-2.66l-0.31-0.18L336.72-2.14z"/>
				<path id="Path_11251" class="st4" d="M337.42-1.82l0.31,0.18l4.61-2.66l-0.31-0.18L337.42-1.82z"/>
			</g>
			<g id="Group_7558">
				<path id="Path_11252" class="st8" d="M333.36-4.19l4.7,2.71l4.7-2.71l-4.7-2.71L333.36-4.19z"/>
				<path id="Path_11253" class="st9" d="M333.01-4.19l5.05,2.91l5.05-2.91l-5.05-2.91L333.01-4.19z M338.06-1.68l-4.35-2.51
					l4.35-2.51l4.35,2.51L338.06-1.68z"/>
				<path id="Path_11254" class="st9" d="M333.82-4.03l0.31,0.18l4.61-2.66l-0.31-0.18L333.82-4.03z"/>
				<path id="Path_11255" class="st9" d="M334.36-3.66l0.31,0.18l4.61-2.66l-0.31-0.18L334.36-3.66z"/>
				<path id="Path_11256" class="st9" d="M335.06-3.34l0.31,0.18l4.61-2.66L339.67-6L335.06-3.34z"/>
				<path id="Path_11257" class="st9" d="M335.6-2.97l0.31,0.18l4.61-2.66l-0.31-0.18L335.6-2.97z"/>
				<path id="Path_11258" class="st9" d="M336.18-2.62l0.31,0.18l4.61-2.66l-0.31-0.18L336.18-2.62z"/>
				<path id="Path_11259" class="st9" d="M336.72-2.26l0.31,0.18l4.61-2.66l-0.31-0.18L336.72-2.26z"/>
				<path id="Path_11260" class="st9" d="M337.42-1.93l0.31,0.18l4.61-2.66l-0.31-0.18L337.42-1.93z"/>
			</g>
			<path id="Path_11261" class="st4" d="M333.02-3.74l0.91,0.52l0.06-0.41l-0.98-0.57L333.02-3.74z"/>
			<path id="Path_11262" class="st5" d="M338.06-1.27l0.01,0.45l5.05-2.91l-0.01-0.45L338.06-1.27z"/>
		</g>
		<g id="Group_7562" transform="translate(9.796 14.66)">
			<g id="Group_7560" transform="translate(0.006 0.328)">
				<path id="Path_11263" class="st4" d="M334.84-3.22l4.7,2.71l4.7-2.71l-4.7-2.71L334.84-3.22z"/>
				<path id="Path_11264" class="st4" d="M334.49-3.22l5.05,2.91l5.05-2.91l-5.05-2.91L334.49-3.22z M339.54-0.71l-4.35-2.51
					l4.35-2.51l4.35,2.51L339.54-0.71z"/>
				<path id="Path_11265" class="st4" d="M335.3-3.06l0.31,0.18l4.61-2.66l-0.31-0.18L335.3-3.06z"/>
				<path id="Path_11266" class="st4" d="M335.85-2.69l0.31,0.18l4.61-2.66l-0.31-0.18L335.85-2.69z"/>
				<path id="Path_11267" class="st4" d="M336.55-2.37l0.31,0.18l4.61-2.66l-0.31-0.18L336.55-2.37z"/>
				<path id="Path_11268" class="st4" d="M337.09-2l0.31,0.18l4.61-2.66l-0.31-0.18L337.09-2z"/>
				<path id="Path_11269" class="st4" d="M337.66-1.66l0.31,0.18l4.61-2.66l-0.31-0.18L337.66-1.66z"/>
				<path id="Path_11270" class="st4" d="M338.2-1.29l0.31,0.18l4.61-2.66l-0.31-0.18L338.2-1.29z"/>
				<path id="Path_11271" class="st4" d="M338.9-0.97l0.31,0.18l4.61-2.66l-0.31-0.18L338.9-0.97z"/>
			</g>
			<g id="Group_7561" transform="translate(0)">
				<path id="Path_11272" class="st8" d="M334.84-3.34l4.7,2.71l4.7-2.71l-4.7-2.71L334.84-3.34z"/>
				<path id="Path_11273" class="st9" d="M334.49-3.34l5.05,2.91l5.05-2.91l-5.05-2.91L334.49-3.34z M339.54-0.83l-4.35-2.51
					l4.35-2.51l4.35,2.51L339.54-0.83z"/>
				<path id="Path_11274" class="st9" d="M335.3-3.18L335.61-3l4.61-2.66l-0.31-0.18L335.3-3.18z"/>
				<path id="Path_11275" class="st9" d="M335.84-2.81l0.31,0.18l4.61-2.66l-0.31-0.18L335.84-2.81z"/>
				<path id="Path_11276" class="st9" d="M336.54-2.49l0.31,0.18l4.61-2.66l-0.31-0.18L336.54-2.49z"/>
				<path id="Path_11277" class="st9" d="M337.08-2.12l0.31,0.18l4.61-2.66l-0.31-0.18L337.08-2.12z"/>
				<path id="Path_11278" class="st9" d="M337.67-1.78l0.31,0.18l4.61-2.66l-0.31-0.18L337.67-1.78z"/>
				<path id="Path_11279" class="st9" d="M338.2-1.41l0.31,0.18l4.61-2.66l-0.31-0.18L338.2-1.41z"/>
				<path id="Path_11280" class="st9" d="M338.9-1.09l0.31,0.18l4.61-2.66l-0.31-0.18L338.9-1.09z"/>
			</g>
			<path id="Path_11281" class="st4" d="M334.5-2.89l0.91,0.52l0.06-0.41l-0.98-0.57L334.5-2.89z"/>
			<path id="Path_11282" class="st5" d="M339.54-0.43l0.01,0.45l5.05-2.91l-0.01-0.45L339.54-0.43z"/>
		</g>
		<g id="Group_7565" transform="translate(6.634)">
			<g>
				<defs>
					<ellipse id="SVGID_1_" cx="339.15" cy="-8.19" rx="5.79" ry="3.34"/>
				</defs>
				<clipPath id="SVGID_2_">
					<use xlink:href="#SVGID_1_"  style="overflow:visible;"/>
				</clipPath>
				<g id="Group_7564" class="st18">
					<g id="Group_7563">
						<ellipse id="Ellipse_804" class="st16" cx="339.15" cy="-8.19" rx="5.79" ry="3.34"/>
						<path id="Path_11283" class="st19" d="M342.71-9.17c-2.17-1.1-4.74-1.1-6.92,0c-1.9,1.1-1.9,2.89,0,3.99
							c2.17,1.1,4.74,1.1,6.92,0C344.62-6.27,344.62-8.06,342.71-9.17z"/>
						<ellipse id="Ellipse_805" class="st20" cx="339.14" cy="-6.57" rx="4.26" ry="2.46"/>
					</g>
				</g>
			</g>
		</g>
		<g id="Group_7568" transform="translate(13.858 4.221)">
			<g>
				<defs>
					<path id="SVGID_3_" d="M345.84-9.03c-2.57-1.31-5.62-1.31-8.19,0c-2.26,1.31-2.26,3.42,0,4.73c2.57,1.31,5.62,1.31,8.19,0
						C348.1-5.61,348.1-7.73,345.84-9.03z"/>
				</defs>
				<clipPath id="SVGID_4_">
					<use xlink:href="#SVGID_3_"  style="overflow:visible;"/>
				</clipPath>
				<g id="Group_7567" class="st21">
					<g id="Group_7566">
						<path id="Path_11284" class="st16" d="M345.84-9.03c-2.57-1.31-5.62-1.31-8.19,0c-2.26,1.31-2.26,3.42,0,4.73
							c2.57,1.31,5.62,1.31,8.19,0C348.1-5.61,348.1-7.73,345.84-9.03z"/>
						<path id="Path_11285" class="st19" d="M345.31-7.64c-2.17-1.1-4.74-1.1-6.92,0c-1.9,1.1-1.9,2.89,0,3.99
							c2.17,1.1,4.74,1.1,6.92,0C347.22-4.75,347.22-6.54,345.31-7.64z"/>
						<ellipse id="Ellipse_807" class="st20" cx="341.75" cy="-5.05" rx="4.26" ry="2.46"/>
					</g>
				</g>
			</g>
		</g>
	</g>
	<g id="Group_7572" transform="translate(-315.895 23.056)">
		<g id="Group_7571" transform="translate(0 0)">
			<path id="Path_11287" class="st22" d="M330.56-6.82c-1.75-0.88-3.81-0.87-5.54,0.03c-0.88,0.3-1.35,1.27-1.05,2.15
				c0.17,0.5,0.56,0.89,1.06,1.05c1.75,0.88,3.81,0.87,5.54-0.03c0.88-0.3,1.35-1.27,1.05-2.15C331.45-6.26,331.05-6.65,330.56-6.82
				z"/>
			<path id="Path_11288" class="st10" d="M332.15,4.66l-8.63,0.21v0.45c0.18,2.05,3.26,2.4,3.26,2.4c1.24,0.19,2.5,0.04,3.66-0.44
				c1.8-0.79,1.72-2,1.72-2L332.15,4.66z"/>
			<path id="Path_11289" class="st9" d="M330.88,3.08c-1.92-0.96-4.19-0.95-6.11,0.03c-0.97,0.33-1.49,1.39-1.16,2.36
				c0.19,0.55,0.62,0.98,1.17,1.16c1.92,0.96,4.19,0.95,6.11-0.03c0.97-0.33,1.49-1.39,1.16-2.36
				C331.87,3.7,331.43,3.27,330.88,3.08z"/>
			<path id="Path_11290" class="st23" d="M331.71-5.22l-7.84,0.04l0.05,9.96c0.16,1.86,2.96,2.18,2.96,2.18
				c1.12,0.17,2.27,0.03,3.32-0.4c1.63-0.72,1.56-1.82,1.56-1.82L331.71-5.22z"/>
			<g id="Group_7570" transform="translate(0.548 0.034)">
				<path id="Path_11291" class="st9" d="M327.17-5.54l-3.45,1.38l0.05,10.33c0,0.11,0.09,0.21,0.21,0.21c0,0,0,0,0,0
					c0.11,0,0.21-0.09,0.21-0.21c0,0,0,0,0,0l-0.05-10.05l3.19-1.28c0.11-0.04,0.16-0.16,0.12-0.27c0,0,0,0,0-0.01
					C327.39-5.54,327.27-5.58,327.17-5.54z"/>
				<path id="Path_11292" class="st9" d="M330.28-6.82l-2.96,1.17c-0.11,0.04-0.16,0.16-0.12,0.27c0,0,0,0,0,0.01
					c0.03,0.08,0.11,0.14,0.19,0.14c0.03,0,0.05-0.01,0.07-0.01l2.96-1.17c0.11-0.04,0.16-0.16,0.12-0.27c0,0,0,0,0-0.01
					C330.51-6.8,330.39-6.86,330.28-6.82C330.28-6.82,330.28-6.82,330.28-6.82z"/>
				<path id="Path_11293" class="st9" d="M325.61-7.4c-0.08-0.08-0.21-0.08-0.29,0c0,0,0,0,0,0c-0.08,0.08-0.08,0.21,0,0.29
					c0,0,0,0,0,0l1.78,1.8c0.04,0.04,0.09,0.06,0.15,0.06c0.05,0,0.11-0.02,0.14-0.06c0.08-0.08,0.08-0.21,0-0.29c0,0,0,0,0,0
					L325.61-7.4z"/>
				<path id="Path_11294" class="st9" d="M327.25-5.39c-0.08,0.08-0.08,0.21,0,0.29c0,0,0,0,0,0l1.85,1.86l0.05,10.02
					c0,0.11,0.09,0.2,0.21,0.2c0,0,0,0,0,0c0.11,0,0.2-0.09,0.2-0.21l0,0l-0.05-10.19l-1.97-1.98
					C327.46-5.47,327.33-5.47,327.25-5.39C327.25-5.39,327.25-5.39,327.25-5.39z"/>
			</g>
		</g>
		<path id="Path_11295" class="st9" d="M328.6-5.81c-0.49-0.25-1.07-0.25-1.55,0c-0.25,0.08-0.38,0.35-0.3,0.6
			c0.05,0.14,0.16,0.25,0.3,0.3c0.49,0.25,1.07,0.25,1.55,0c0.25-0.08,0.38-0.35,0.3-0.6C328.85-5.65,328.74-5.76,328.6-5.81z"/>
	</g>
	<g id="Group_7575" transform="translate(-310.839 30.284)">
		<g id="Group_7573">
			<path id="Path_11296" class="st9" d="M334.55-0.14l-8.07-4.68l-0.93,1.52l8.07,4.68c0.92,0.53,1.49,1.5,1.5,2.56l0.01,1.61
				l1.82-0.01l-0.01-1.6C336.92,2.26,336.01,0.71,334.55-0.14z"/>
			<path id="Path_11297" class="st9" d="M325.99-4.78c-0.38,0.24-0.62,0.65-0.64,1.1c0,0.41,0.29,0.56,0.65,0.36
				c0.38-0.24,0.62-0.65,0.64-1.1C326.63-4.82,326.34-4.98,325.99-4.78z"/>
			<path id="Path_11298" class="st9" d="M336.68,5.15c-0.41-0.2-0.88-0.2-1.29,0c-0.35,0.2-0.35,0.52,0,0.72
				c0.41,0.2,0.88,0.2,1.29,0C337.04,5.67,337.03,5.35,336.68,5.15z"/>
		</g>
		<g id="Group_7574" transform="translate(2.499 1.169)">
			<path id="Path_11299" class="st24" d="M329.02-4.18c-0.73-0.37-1.59-0.36-2.31,0.01c-0.37,0.12-0.56,0.52-0.44,0.89
				c0.07,0.21,0.23,0.37,0.44,0.44c0.73,0.37,1.59,0.36,2.31-0.01c0.37-0.12,0.56-0.52,0.44-0.89
				C329.39-3.94,329.23-4.11,329.02-4.18z M328.65-3.06c-0.49,0.25-1.07,0.25-1.56,0.01c-0.25-0.09-0.38-0.36-0.3-0.6
				c0.05-0.14,0.16-0.25,0.3-0.3c0.49-0.25,1.07-0.25,1.56-0.01c0.25,0.09,0.38,0.36,0.3,0.6C328.9-3.22,328.79-3.11,328.65-3.06z"
				/>
			<path id="Path_11300" class="st24" d="M326.8-3.95l1.93,1.1l0.29-0.17l-1.93-1.1L326.8-3.95z"/>
			<path id="Path_11301" class="st24" d="M326.78-2.99l0.29,0.17l1.85-1.08l-0.29-0.17L326.78-2.99z"/>
		</g>
	</g>
</g>
</svg>
