<?xml version="1.0" encoding="utf-8"?>
<!-- Generator: Adobe Illustrator 24.1.0, SVG Export Plug-In . SVG Version: 6.00 Build 0)  -->
<svg version="1.1" id="Layer_1" xmlns="http://www.w3.org/2000/svg" xmlns:xlink="http://www.w3.org/1999/xlink" x="0px" y="0px"
	 viewBox="0 0 66 66" style="enable-background:new 0 0 66 66;" xml:space="preserve">
<style type="text/css">
	.st0{fill:#1270E3;}
	.st1{fill-rule:evenodd;clip-rule:evenodd;fill:#304258;}
	.st2{fill-rule:evenodd;clip-rule:evenodd;fill:#1270E3;}
	.st3{fill-rule:evenodd;clip-rule:evenodd;fill:#D6806B;}
	.st4{fill-rule:evenodd;clip-rule:evenodd;fill:#FFFFFF;}
	.st5{fill-rule:evenodd;clip-rule:evenodd;fill:#383A4A;}
	.st6{fill:none;stroke:#304258;stroke-width:0.5;stroke-linecap:round;stroke-linejoin:round;}
	.st7{fill:#E3AB84;}
	.st8{fill-rule:evenodd;clip-rule:evenodd;fill:#1C2036;}
	.st9{fill-rule:evenodd;clip-rule:evenodd;fill:#BB4F58;}
	.st10{fill-rule:evenodd;clip-rule:evenodd;fill:#EECEB7;}
	.st11{fill-rule:evenodd;clip-rule:evenodd;fill:#E3AB84;}
	.st12{fill:none;stroke:#D6806B;stroke-width:0.567;stroke-linecap:round;stroke-linejoin:round;}
</style>
<g>
	<g>
		<path class="st0" d="M46.24,42.91c0,0,0.46-8.43-1.41-13.58l-8.11-2.27c-0.46,1.3-1.75,2.12-3.12,1.99
			c-1.37,0.13-2.66-0.69-3.12-1.99l-9.04,2.53c2.77,5.62-0.48,13.32-0.48,13.32c1.29,8.35,0.6,9.14-0.42,16.78
			c3.86,1.59,8.09,2.47,12.52,2.47c4.64,0,9.05-0.96,13.06-2.69C45.19,52.31,44.98,51.05,46.24,42.91z"/>
	</g>
	<path id="Path_11044" class="st1" d="M11.09,27.84c0.74-0.21,1.52-0.3,2.29-0.27c1.42,0.1,2.83,0.34,4.2,0.73
		c-0.24,0.23-0.49,0.43-0.76,0.62c-0.11,0.02-4.48,0.75-4.54,0.64S11.09,27.84,11.09,27.84z"/>
	<path id="Path_11045" class="st2" d="M21.43,29.6c-0.94,0.31-1.84,0.73-2.67,1.26c-0.67,0.58-8.14,11.97-8.14,11.97l4,4.35
		l6.34-4.27C20.96,42.91,24.97,35.11,21.43,29.6z"/>
	<path id="Path_11046" class="st2" d="M11.09,27.84L9.85,43.51c-0.52,6.54,5.61,4.91,6.09,1.42c0.4-2.91,1.63-16.63,1.63-16.63
		l-3.54,0.63c-0.77-0.05-1.52-0.31-2.17-0.74L11.09,27.84z"/>
	<path id="Path_11047" class="st1" d="M55.17,27.58c-0.74-0.21-1.52-0.3-2.29-0.27c-1.42,0.1-2.83,0.34-4.2,0.73
		c0.24,0.23,0.49,0.43,0.76,0.62c0.11,0.02,4.48,0.75,4.54,0.64S55.17,27.58,55.17,27.58z"/>
	<path id="Path_11048" class="st2" d="M44.83,29.34c0.94,0.31,1.84,0.73,2.67,1.26c0.67,0.58,8.14,11.97,8.14,11.97l-4.02,4.34
		l-9.28-6.89C42.34,40.01,43.51,37.22,44.83,29.34z"/>
	<path id="Path_11049" class="st3" d="M33.6,21.36L33.6,21.36c-1.75,0.03-3.14,1.47-3.12,3.22v4.26c-0.02,1.75,1.37,3.19,3.12,3.22
		l0,0c1.75-0.03,3.14-1.47,3.12-3.22v-4.26C36.74,22.83,35.35,21.39,33.6,21.36z"/>
	<path id="Path_11050" class="st2" d="M55.17,27.58l1.24,15.67c0.52,6.54-5.61,4.91-6.09,1.42c-0.4-2.91-1.63-16.63-1.63-16.63
		l2.98,0.56c0.95-0.02,1.87-0.25,2.72-0.67L55.17,27.58z"/>
	<path id="Path_11052" class="st4" d="M46.28,41.39c-0.01,0.94-0.04,1.52-0.04,1.52c-0.05,0.32-0.1,0.62-0.14,0.92
		c-0.02-0.02-0.04-0.05-0.06-0.08l-3.25-4.63l-3.25,4.63c-0.02,0.04-0.05,0.07-0.08,0.1l0,0l-0.01,0.01l-0.01,0.01l-0.01,0.01l0,0
		c-0.05,0.05-0.1,0.08-0.16,0.12l0,0L39.26,44l0,0l-0.02,0.01l0,0l-0.02,0.01l0,0l-0.02,0.01l0,0c-0.1,0.04-0.2,0.06-0.3,0.06H38.9
		c-0.1,0-0.21-0.02-0.3-0.06l0,0l-0.02-0.01l0,0l-0.02-0.01l0,0L38.55,44l0,0l-0.02-0.01l0,0c-0.06-0.03-0.11-0.07-0.16-0.12l0,0
		l-0.01-0.01l-0.01-0.01l-0.01-0.01l0,0c-0.03-0.03-0.06-0.06-0.08-0.1l-3.25-4.63l-3.25,4.63c-0.02,0.04-0.05,0.07-0.08,0.1l0,0
		l-0.01,0.01l-0.01,0.01l-0.01,0.01l0,0c-0.05,0.05-0.1,0.08-0.16,0.12l0,0L31.49,44l0,0l-0.02,0.01l0,0l-0.02,0.01l0,0l-0.02,0.01
		l0,0c-0.1,0.04-0.2,0.06-0.3,0.06h-0.01c-0.1,0-0.21-0.02-0.3-0.06l0,0l-0.02-0.01l0,0l-0.02-0.01l0,0L30.78,44l0,0l-0.02-0.01l0,0
		c-0.06-0.03-0.11-0.07-0.16-0.12l0,0l-0.01-0.01l-0.01-0.01l-0.01-0.01l0,0c-0.03-0.03-0.06-0.06-0.08-0.1l-3.25-4.63L24,43.75
		c-0.02,0.04-0.05,0.07-0.08,0.1l0,0l-0.01,0.01l-0.01,0.01l-0.01,0.01l0,0c-0.05,0.05-0.1,0.08-0.16,0.12l0,0L23.72,44l0,0
		l-0.02,0.01l0,0l-0.02,0.01l0,0l-0.02,0.01l0,0c-0.1,0.04-0.2,0.06-0.31,0.06h-0.01c-0.1,0-0.21-0.02-0.3-0.06l0,0l-0.02-0.01l0,0
		l-0.02-0.01l0,0L23,44l0,0l-0.02-0.01l0,0c-0.06-0.03-0.11-0.07-0.16-0.12l0,0l-0.01-0.01l-0.01-0.01l-0.01-0.01l0,0
		c-0.03-0.03-0.06-0.06-0.08-0.1l-1.32-1.88c0.17-0.5,0.37-1.15,0.56-1.92l1.41,2.01l3.25-4.63c0.02-0.04,0.05-0.07,0.08-0.1l0,0
		l0.01-0.01l0.01-0.01l0.01-0.01l0,0c0.05-0.05,0.1-0.08,0.16-0.12l0,0l0.02-0.01l0,0l0.02-0.01l0,0l0.02-0.01l0,0l0.02-0.01l0,0
		c0.1-0.04,0.2-0.06,0.3-0.07h-0.05c0.1,0,0.21,0.02,0.3,0.07l0,0l0.02,0.01l0,0l0.02,0.01l0,0l0.02,0.01l0,0l0.02,0.01l0,0
		c0.06,0.03,0.11,0.07,0.16,0.12l0,0l0.01,0.01l0.01,0.01l0.01,0.01l0,0c0.03,0.03,0.06,0.06,0.08,0.1l3.25,4.63l3.25-4.63
		c0.02-0.04,0.05-0.07,0.08-0.1l0,0l0.01-0.01l0.01-0.01l0.01-0.01l0,0c0.05-0.05,0.1-0.08,0.16-0.12l0,0l0.02-0.01l0,0l0.02-0.01
		l0,0l0.02-0.01l0,0l0.02-0.01l0,0c0.1-0.04,0.2-0.06,0.31-0.07h0.01c0.11,0,0.21,0.02,0.31,0.07l0,0l0.02,0.01l0,0l0.02,0.01l0,0
		l0.02,0.01l0,0l0.02,0.01l0,0c0.06,0.03,0.11,0.07,0.16,0.12l0,0l0.01,0.01l0.01,0.01l0.01,0.01l0,0c0.03,0.03,0.06,0.06,0.08,0.1
		l3.25,4.63l3.25-4.63c0.02-0.04,0.05-0.07,0.08-0.1l0,0l0.01-0.01l0.01-0.01l0.01-0.01l0,0c0.05-0.04,0.1-0.08,0.16-0.12l0,0
		l0.02-0.01l0,0l0.02-0.01l0,0l0.02-0.01l0,0l0.02-0.01l0,0c0.09-0.04,0.2-0.06,0.3-0.07h0.01c0.1,0,0.21,0.02,0.3,0.07l0,0
		l0.02,0.01l0,0l0.02,0.01l0,0l0.02,0.01l0,0l0.02,0.01l0,0c0.06,0.03,0.11,0.07,0.16,0.12l0,0l0.01,0.01l0.01,0.01l0.01,0.01l0,0
		c0.03,0.03,0.06,0.06,0.08,0.1l2.85,4.05L46.28,41.39z M45.77,46.13l-2.34-3.33c-0.02-0.04-0.05-0.07-0.08-0.1l0,0l-0.01-0.01
		l-0.01-0.01l-0.01-0.01l0,0c-0.05-0.04-0.1-0.08-0.16-0.12l0,0l-0.02-0.01l0,0l-0.02-0.01l0,0l-0.02-0.01l0,0l-0.02-0.01l0,0
		c-0.1-0.04-0.2-0.06-0.3-0.06h-0.01c-0.1,0-0.21,0.02-0.3,0.06l0,0l-0.02,0.01l0,0l-0.02,0.01l0,0l-0.02,0.01l0,0l-0.02,0.01l0,0
		c-0.06,0.03-0.11,0.07-0.16,0.12l0,0l-0.01,0.01l-0.01,0.01l-0.01,0.01l0,0c-0.03,0.03-0.06,0.06-0.08,0.1l-3.25,4.63l-3.25-4.63
		c-0.02-0.04-0.05-0.07-0.08-0.1l0,0l-0.01-0.01l-0.01-0.01l-0.01-0.01l0,0c-0.05-0.04-0.1-0.08-0.16-0.12l0,0l-0.02-0.01l0,0
		l-0.02-0.01l0,0l-0.02-0.01l0,0l-0.02-0.01l0,0c-0.1-0.04-0.2-0.06-0.31-0.06h-0.01c-0.11,0-0.21,0.02-0.31,0.06l0,0l-0.02,0.01
		l0,0l-0.02,0.01l0,0l-0.02,0.01l0,0l-0.02,0.01l0,0c-0.06,0.03-0.11,0.07-0.16,0.12l0,0l-0.01,0.01l-0.01,0.01l-0.01,0.01l0,0
		c-0.03,0.03-0.06,0.06-0.08,0.1l-3.25,4.63l-3.25-4.63c-0.02-0.04-0.05-0.07-0.08-0.1l0,0L27.8,42.7l-0.01-0.01l-0.01-0.01l0,0
		c-0.05-0.04-0.1-0.08-0.16-0.12l0,0l-0.02-0.01l0,0l-0.02-0.01l0,0l-0.02-0.01l0,0l-0.02-0.01l0,0c-0.1-0.04-0.2-0.06-0.3-0.06
		h-0.01c-0.1,0-0.21,0.02-0.3,0.06l0,0l-0.02,0.01l0,0l-0.02,0.01l0,0l-0.02,0.01l0,0l-0.02,0.01l0,0
		c-0.06,0.03-0.11,0.07-0.16,0.12l0,0l-0.01,0.01l-0.01,0.01l-0.01,0.01l0,0c-0.03,0.03-0.06,0.06-0.08,0.1l-3.25,4.63l-2.12-3.02
		c0.17,1.25,0.3,2.31,0.38,3.25l1.1,1.57c0.02,0.04,0.05,0.07,0.08,0.1l0,0l0.01,0.01l0.01,0.01l0.01,0.01l0,0
		c0.05,0.05,0.1,0.08,0.16,0.12l0,0L23,49.47l0,0l0.02,0.01l0,0l0.02,0.01l0,0l0.02,0.01l0,0c0.1,0.04,0.2,0.06,0.3,0.07h0.01
		c0.11,0,0.21-0.02,0.31-0.07l0,0l0.02-0.01l0,0l0.02-0.01l0,0l0.02-0.01l0,0l0.02-0.01l0,0c0.06-0.03,0.11-0.07,0.16-0.12l0,0
		l0.01-0.01l0.01-0.01l0.01-0.01l0,0c0.03-0.03,0.06-0.06,0.08-0.1l3.25-4.63l3.25,4.63c0.02,0.04,0.05,0.07,0.08,0.1l0,0l0.01,0.01
		l0.01,0.01l0.01,0.01l0,0c0.05,0.05,0.1,0.08,0.16,0.12l0,0l0.02,0.01l0,0l0.02,0.01l0,0l0.02,0.01l0,0l0.02,0.01l0,0
		c0.09,0.04,0.2,0.06,0.3,0.07h0.01c0.1,0,0.21-0.02,0.3-0.07l0,0l0.02-0.01l0,0l0.02-0.01l0,0l0.02-0.01l0,0l0.02-0.01l0,0
		c0.06-0.03,0.11-0.07,0.16-0.12l0,0l0.01-0.01l0.01-0.01l0.01-0.01l0,0c0.03-0.03,0.06-0.06,0.08-0.1l3.25-4.63l3.25,4.63
		c0.02,0.04,0.05,0.07,0.08,0.1l0,0l0.01,0.01l0.01,0.01l0.01,0.01l0,0c0.05,0.05,0.1,0.08,0.16,0.12l0,0l0.02,0.01l0,0l0.02,0.01
		l0,0l0.02,0.01l0,0l0.02,0.01l0,0c0.09,0.04,0.2,0.06,0.3,0.07h0.01c0.1,0,0.21-0.02,0.3-0.07l0,0l0.02-0.01l0,0l0.02-0.01l0,0
		l0.02-0.01l0,0l0.02-0.01l0,0c0.06-0.03,0.11-0.07,0.16-0.12l0,0l0.01-0.01l0.01-0.01l0.01-0.01l0,0c0.03-0.03,0.06-0.06,0.08-0.1
		l3.25-4.63l2.72,3.87C45.57,47.76,45.66,46.99,45.77,46.13L45.77,46.13z"/>
	<path id="Path_11053" class="st5" d="M33.6,29.06c1.37,0.13,2.66-0.69,3.12-1.99l1.57,0.44c-0.77,1.67-2.01,3.13-4.02,3.13
		c-2.27,0.08-4.39-1.12-5.49-3.1l1.69-0.47C30.94,28.37,32.22,29.19,33.6,29.06z"/>
	<path id="Path_11054" class="st6" d="M20.96,42.91c0,0,2.49-6.75-0.48-11.48 M45.39,50.12c0,0-0.26,2.78-1.33,3.61 M21.66,49.33
		c0.41,1.84,1.35,3.51,2.7,4.83 M17.15,33.07l-0.19,7.45 M49.15,33.1l0.45,7.98 M46.24,42.91c0,0,1.19-7.01-0.92-11.98"/>
	<path id="Path_11055" class="st3" d="M26.24,16.3c-0.05,0.01-0.1,0.01-0.15,0.03l0,0c-1.1,0.23-1.81,1.31-1.58,2.41
		s1.31,1.81,2.41,1.58S28.73,19,28.5,17.9c-0.1-0.46-0.35-0.87-0.71-1.17c0.05,0.6-0.04,1.35-0.81,1.42L27,16.98
		c-0.01-0.39-0.33-0.69-0.72-0.68C26.27,16.3,26.25,16.3,26.24,16.3z"/>
	<path id="Path_11056" class="st3" d="M40.96,16.3c0.05,0.01,0.1,0.01,0.15,0.03l0,0c1.1,0.23,1.81,1.31,1.58,2.41
		s-1.31,1.81-2.41,1.58S38.46,19,38.7,17.9c0.1-0.46,0.35-0.87,0.71-1.17c-0.05,0.6,0.04,1.35,0.81,1.42l-0.02-1.18
		c0.01-0.39,0.33-0.69,0.72-0.68C40.93,16.3,40.95,16.3,40.96,16.3z"/>
	<path id="Rectangle_3107" class="st7" d="M33.6,6.11L33.6,6.11c3.86,0,6.98,3.13,6.98,6.98v6.35c0,3.86-3.13,6.98-6.98,6.98l0,0
		l0,0c-3.86,0-6.98-3.13-6.98-6.98v0v-6.35C26.61,9.24,29.74,6.11,33.6,6.11z"/>
	<path id="Path_11057" class="st8" d="M32.13,21.92c-0.01,0.94,0.74,1.7,1.67,1.71c0.94,0.01,1.7-0.74,1.71-1.67l0,0
		c0-0.16-0.12-0.3-0.29-0.3c0,0,0,0,0,0l-2.8-0.03C32.26,21.62,32.13,21.75,32.13,21.92C32.13,21.91,32.13,21.91,32.13,21.92
		L32.13,21.92z"/>
	<path id="Path_11058" class="st9" d="M32.74,23.25c0.56,0.46,1.34,0.52,1.96,0.14c-0.17-0.38-0.54-0.63-0.96-0.64
		C33.34,22.72,32.96,22.91,32.74,23.25z"/>
	<path id="Path_11059" class="st4" d="M35.26,21.67l-2.63-0.03c-0.06,0.26,0.05,0.52,0.28,0.65c0.76,0.08,1.53,0.05,2.28-0.09
		C35.26,22.03,35.28,21.85,35.26,21.67z"/>
	<path id="Path_11060" class="st3" d="M37.19,20.3c-0.48,0-0.86,0.39-0.85,0.87c0,0.48,0.39,0.86,0.87,0.85
		c0.48,0,0.86-0.39,0.85-0.87C38.05,20.68,37.66,20.3,37.19,20.3z"/>
	<path id="Path_11061" class="st3" d="M30.04,20.38c-0.48,0-0.86,0.39-0.85,0.87c0,0.48,0.39,0.86,0.87,0.85
		c0.48,0,0.86-0.39,0.85-0.87C30.91,20.76,30.52,20.37,30.04,20.38z"/>
	<path id="Path_11062" class="st8" d="M29.57,16.15c-0.11,0.06-0.25,0.01-0.31-0.1c-0.06-0.11-0.02-0.25,0.09-0.31
		c0.63-0.36,1.4-0.37,2.04-0.05c0.12,0.05,0.17,0.18,0.13,0.3c-0.05,0.12-0.18,0.17-0.3,0.13c-0.02-0.01-0.03-0.02-0.05-0.03
		C30.66,15.85,30.06,15.87,29.57,16.15z"/>
	<path id="Path_11063" class="st8" d="M37.66,15.91c-0.51-0.26-1.11-0.24-1.6,0.04c-0.11,0.07-0.25,0.04-0.32-0.07
		s-0.04-0.25,0.07-0.32c0.63-0.36,1.39-0.38,2.04-0.06c0.12,0.06,0.17,0.19,0.11,0.31C37.91,15.92,37.77,15.97,37.66,15.91
		L37.66,15.91z"/>
	<path id="Path_11064" class="st10" d="M33.82,18.74l0.2,1.44c0,0-0.01,0.39-0.62,0.27S33.5,18.67,33.82,18.74z"/>
	<path id="Path_11065" class="st8" d="M30.81,11.46c-0.75,0-2.21,0.36-2.21,1.86s-0.28,2.69-1.24,2.69v1.18
		c0,0.66-0.06,1.33-0.69,1.33c0.06-0.69-0.09-1.38-0.43-1.97v-3.55c-0.09-2.13,0.9-4.17,2.64-5.41c2.88-1.98,6.68-1.98,9.56,0
		c1.74,1.24,2.73,3.28,2.64,5.41v3.56c-0.34,0.6-0.49,1.29-0.43,1.97c-0.62,0-0.69-0.67-0.69-1.33v-1.18
		c-0.96,0-1.24-1.19-1.24-2.69s-1.46-1.86-2.21-1.86L30.81,11.46z"/>
	<g id="Group_7504" transform="translate(18.33 0)">
		<path id="Path_11066" class="st8" d="M10.26,11.93c0,0-1.67-1-1.75-2.26c-0.15-2.31,3.14-5.99,6.17-4.52
			c6.79-3.04,10.95,1.58,5.2,6.79L19.79,12c-0.47-0.35-1.03-0.53-1.61-0.53h-5.7c-0.66-0.01-1.3,0.23-1.78,0.69
			C10.41,12.01,10.26,11.93,10.26,11.93z"/>
		<path id="Path_11067" class="st8" d="M8.89,10.22c0.03,0.04,0.02,0.1-0.02,0.14c-0.04,0.03-0.09,0.03-0.12-0.01c0,0,0,0,0-0.01
			C8.03,9.2,8.13,7.73,8.97,6.68C9,6.64,9.06,6.62,9.1,6.65c0,0,0,0,0.01,0c0.04,0.03,0.05,0.09,0.02,0.14
			C8.32,7.77,8.23,9.15,8.89,10.22z"/>
		<path id="Path_11068" class="st8" d="M10.35,6.49c-0.03,0.04-0.08,0.05-0.12,0.02c0,0,0,0-0.01,0c-0.04-0.03-0.05-0.09-0.02-0.14
			c0-0.01,1.72-2.5,3.59-2.53c1.93-0.03,1.47,2.09,1.46,2.09c-0.01,0.05-0.06,0.08-0.11,0.07c0,0,0,0,0,0
			C15.1,6,15.07,5.95,15.08,5.9c0,0,0.42-1.88-1.28-1.86C12.02,4.07,10.36,6.48,10.35,6.49z"/>
	</g>
	<path id="Path_11069" class="st8" d="M30.3,18.92c0.45,0.07,0.87-0.23,0.95-0.68c0.07-0.45-0.23-0.87-0.68-0.95
		c-0.45-0.07-0.87,0.23-0.95,0.68c0,0,0,0,0,0C29.55,18.42,29.85,18.84,30.3,18.92C30.3,18.92,30.3,18.92,30.3,18.92z"/>
	<path id="Path_11070" class="st8" d="M37.37,18.3c-0.02-0.34-0.3-0.6-0.64-0.59c-0.32,0.01-0.57,0.27-0.59,0.59
		c0,0.14-0.11,0.25-0.25,0.25c-0.14,0-0.25-0.11-0.25-0.25c0-0.61,0.49-1.11,1.1-1.11c0.45,0,0.86,0.27,1.03,0.69
		c0.05,0.01,0.11,0,0.15-0.03c0.03-0.02,0.07-0.02,0.1,0.01c0,0,0,0,0,0c0.02,0.03,0.02,0.08-0.01,0.1c0,0,0,0,0,0
		c-0.05,0.04-0.12,0.06-0.19,0.06l0,0c0.07,0.02,0.15,0.01,0.21-0.02c0.04-0.02,0.08,0,0.09,0.03s0,0.08-0.03,0.09l0,0
		c-0.08,0.04-0.16,0.05-0.25,0.04l0,0c0.07,0.03,0.15,0.04,0.22,0.03c0.04,0,0.07,0.02,0.08,0.06s-0.02,0.07-0.06,0.08
		c-0.08,0.01-0.16,0-0.23-0.02c-0.02,0.13-0.14,0.23-0.28,0.21C37.46,18.52,37.37,18.42,37.37,18.3L37.37,18.3z"/>
	<g id="Group_7506" transform="translate(39.124 13.014)">
		<path id="Path_11071" class="st11" d="M11.75,15.44c-0.78-0.16-1.43-0.68-1.76-1.4c-0.49-1.18-0.79-2.01-0.79-2.01
			s-0.77-1.68-0.86-1.84C8.24,9.94,8.28,9.66,8.46,9.46C8.64,9.29,9.13,8.61,9.2,8.54s0.71,0.13,0.39,1.32l0.48,0.85
			c0.08,0.02,0.15,0.07,0.2,0.14c0.38-0.13,0.78-0.22,1.19-0.24c0.01-0.09,0.05-0.16,0.12-0.22l0.1-0.95l-0.65-0.86
			c-0.06,0-0.11-0.03-0.16-0.07c0,0-0.62,0.48-0.98,0.4s-0.4-0.28-0.38-0.4c0.13-0.25,0.27-0.5,0.43-0.73
			c0.07-0.12,0.18-0.2,0.31-0.24c0.21-0.07,1.12-0.2,1.12-0.2c0.18-0.03,0.36,0.04,0.47,0.18c0.18,0.24,0.87,1.24,0.87,1.24
			l0.25-0.07c0,0,1.44-4.01,1.67-4.4C14.79,4,15.09,3.83,15.4,3.86C15.57,3.9,15.68,4,15.59,4.3s-1.26,4.75-1.26,4.75
			s0.86-0.81,0.91-0.87s1.24-2.2,1.43-2.41c0.17-0.23,0.47-0.33,0.75-0.25c0.26,0.11,0.09,0.35-0.08,0.75s-1.02,2.3-1.11,2.48
			c-0.08,0.18-0.18,0.36-0.3,0.53c-0.12,0.16-0.34,0.5-0.34,0.5s2.23-1.39,2.39-1.46c0.22-0.02,0.44,0.04,0.61,0.19
			c0.09,0.1-0.12,0.27-0.38,0.5s-2.51,2.19-2.66,2.36c-0.69,1.33-1.27,2.71-1.72,4.14C13.13,15.61,12.43,15.59,11.75,15.44z"/>
		<g id="Group_7505" transform="translate(0.799 4.278)">
			<path id="Path_11072" class="st12" d="M8.79,5.58C8.7,5.8,8.51,5.97,8.28,6.03"/>
			<path id="Path_11073" class="st12" d="M10.08,4.22c0.08-0.1,0.12-0.22,0.14-0.35"/>
			<path id="Path_11074" class="st12" d="M10.23,4.29c0,0,0.22-0.05,0.5-0.44"/>
			<path id="Path_11075" class="st12" d="M10.88,5.15c0.22-0.16,0.46-0.31,0.7-0.44"/>
			<path id="Path_11076" class="st12" d="M9.27,6.43C9.22,6.55,9.15,6.66,9.05,6.74"/>
			<path id="Path_11077" class="st12" d="M9.47,6.57C9.31,6.89,9.02,7.15,8.68,7.28"/>
			<path id="Path_11078" class="st12" d="M10.66,6.33c0.23,0.02,0.43,0.14,0.57,0.32c0.24,0.84,0.07,1.75-0.48,2.44"/>
			<path id="Path_11079" class="st12" d="M11.33,5.39c0.59-0.22,1.25,1.52,2.34,2"/>
			<path id="Path_11080" class="st12" d="M12.18,4.4c0.18-0.01,0.37,0.01,0.54,0.07"/>
			<path id="Path_11081" class="st12" d="M13.53,4.75l-0.32-0.11"/>
			<line id="Line_27" class="st12" x1="14.78" y1="5.48" x2="14.16" y2="5.87"/>
			<line id="Line_28" class="st12" x1="13.9" y1="5.39" x2="14.35" y2="6.28"/>
		</g>
	</g>
	<g id="Group_7508" transform="translate(0 13.364)">
		<path id="Path_11082" class="st11" d="M15.12,15.44c0.78-0.16,1.43-0.68,1.76-1.4c0.49-1.18,0.79-2.01,0.79-2.01
			s0.77-1.68,0.86-1.84c0.09-0.25,0.04-0.53-0.13-0.73c-0.18-0.17-0.67-0.85-0.74-0.92s-0.71,0.13-0.39,1.32l-0.48,0.85
			c-0.08,0.02-0.15,0.07-0.2,0.14c-0.38-0.13-0.78-0.22-1.19-0.24c-0.01-0.09-0.05-0.16-0.12-0.22l-0.1-0.95l0.65-0.86
			c0.06,0,0.11-0.03,0.16-0.07c0,0,0.62,0.48,0.98,0.4s0.4-0.28,0.38-0.4c-0.13-0.25-0.27-0.5-0.43-0.73
			c-0.07-0.12-0.18-0.2-0.31-0.24c-0.21-0.07-1.12-0.2-1.12-0.2c-0.18-0.03-0.36,0.04-0.47,0.18c-0.18,0.24-0.87,1.24-0.87,1.24
			l-0.25-0.07c0,0-1.44-4.01-1.67-4.4C12.08,4,11.78,3.83,11.47,3.86C11.31,3.9,11.2,4,11.29,4.3s1.26,4.75,1.26,4.75
			s-0.86-0.81-0.91-0.87s-1.24-2.2-1.43-2.41c-0.17-0.23-0.47-0.33-0.75-0.25C9.21,5.62,9.37,5.85,9.54,6.26s1.02,2.3,1.11,2.48
			c0.08,0.18,0.18,0.36,0.3,0.53c0.12,0.16,0.34,0.5,0.34,0.5S9.06,8.37,8.91,8.3C8.69,8.28,8.47,8.34,8.3,8.49
			c-0.09,0.1,0.12,0.27,0.38,0.5s2.51,2.19,2.66,2.36c0.7,1.33,1.27,2.71,1.72,4.14C13.75,15.61,14.45,15.59,15.12,15.44z"/>
		<g id="Group_7507" transform="translate(3.016 4.278)">
			<path id="Path_11083" class="st12" d="M14.26,5.58c0.09,0.22,0.28,0.39,0.52,0.45"/>
			<path id="Path_11084" class="st12" d="M12.98,4.22C12.9,4.12,12.86,4,12.84,3.87"/>
			<path id="Path_11085" class="st12" d="M12.82,4.29c0,0-0.22-0.05-0.5-0.44"/>
			<path id="Path_11086" class="st12" d="M12.17,5.15c-0.22-0.16-0.46-0.31-0.7-0.44"/>
			<path id="Path_11087" class="st12" d="M13.78,6.43c0.05,0.12,0.13,0.23,0.22,0.31"/>
			<path id="Path_11088" class="st12" d="M13.59,6.57c0.17,0.33,0.45,0.58,0.79,0.72"/>
			<path id="Path_11089" class="st12" d="M12.39,6.33c-0.23,0.02-0.43,0.14-0.57,0.32c-0.24,0.84-0.07,1.75,0.48,2.44"/>
			<path id="Path_11090" class="st12" d="M11.73,5.39c-0.59-0.22-1.25,1.52-2.34,2"/>
			<path id="Path_11091" class="st12" d="M10.87,4.4c-0.18-0.01-0.37,0.01-0.54,0.07"/>
			<path id="Path_11092" class="st12" d="M9.53,4.75l0.32-0.11"/>
			<line id="Line_29" class="st12" x1="8.28" y1="5.48" x2="8.9" y2="5.87"/>
			<line id="Line_30" class="st12" x1="9.16" y1="5.39" x2="8.71" y2="6.28"/>
		</g>
	</g>
</g>
</svg>
