<?xml version="1.0" encoding="utf-8"?>
<!-- Generator: Adobe Illustrator 24.1.0, SVG Export Plug-In . SVG Version: 6.00 Build 0)  -->
<svg version="1.1" id="Layer_1" xmlns="http://www.w3.org/2000/svg" xmlns:xlink="http://www.w3.org/1999/xlink" x="0px" y="0px"
	 viewBox="0 0 27 19" style="enable-background:new 0 0 27 19;" xml:space="preserve">
<style type="text/css">
	.st0{fill:#EDF3F9;}
</style>
<g>
	<path class="st0" d="M18.11,11.13c-0.5,0-0.91,0.41-0.91,0.91v0.01H0.7v1.49c0,1.29,0.62,2.51,1.68,3.26l0.03,0.02
		c0.45,0.32,0.6,0.93,0.35,1.43l-0.01,0.02c-0.03,0.06-0.05,0.14-0.05,0.21c0,0.25,0.21,0.46,0.46,0.46h18.54
		c0.86,0,1.64-0.48,2.04-1.24l3.14-6.55L18.11,11.13z"/>
	<path class="st0" d="M13.68,11.59h2.01c0.58,0,1.06-0.47,1.06-1.06V6.69c0-0.58-0.47-1.06-1.06-1.06h-2.01
		c-0.58,0-1.06,0.47-1.06,1.06v3.84C12.62,11.12,13.09,11.59,13.68,11.59z"/>
	<path class="st0" d="M18.72,10.21h2.47c0.58,0,1.06-0.47,1.06-1.06V8.52c0-0.58-0.47-1.06-1.06-1.06h-2.47
		c-0.58,0-1.06,0.47-1.06,1.06v0.64C17.66,9.74,18.13,10.21,18.72,10.21z"/>
	<path class="st0" d="M7.12,10.53c0,0.58,0.47,1.06,1.06,1.06h2.47c0.58,0,1.06-0.47,1.06-1.06V8.06C11.7,7.48,11.23,7,10.64,7H8.17
		C7.59,7,7.12,7.48,7.12,8.06V10.53z"/>
	<path class="st0" d="M1.42,11.78h4.77V5.63l1.15-0.79l-3.32,0v-1.3h0.87V2.68H4.03v-2.6H3.59v2.6h-1.3v0.87h1.3v1.3H0.12v0.87h1.3
		V11.78z M4.03,6.14h1.3v1.3h-1.3V6.14z M4.03,8.31h1.3v1.73h-1.3V8.31z"/>
</g>
</svg>
