<svg xmlns="http://www.w3.org/2000/svg" width="16.001" height="15" viewBox="0 0 16.001 15">
    <path fill="#b2b2cc" d="M16.441 99.636a1.383 1.383 0 0 1-1.351-1.41v-2.342a1.383 1.383 0 0 1 1.351-1.41h3.585v-2.332a1.065 1.065 0 0 0-1.043-1.087H6.067a1.065 1.065 0 0 0-1.042 1.087v9.825a1.065 1.065 0 0 0 1.041 1.088h12.917a1.065 1.065 0 0 0 1.042-1.087v-2.333h-3.584zm3.94-4.581h-3.712a.677.677 0 0 0-.644.7v2.6a.677.677 0 0 0 .644.7h3.712a.677.677 0 0 0 .644-.7v-2.6a.677.677 0 0 0-.644-.7zm-2.433 3.017a1.022 1.022 0 1 1 .929-1.017.976.976 0 0 1-.929 1.017zm-.247-9a1.475 1.475 0 0 0-1.862-.943l-5.81 1.925h8z" transform="translate(-5.025 -88.055)"/>
</svg>
