<svg xmlns="http://www.w3.org/2000/svg" width="17" height="17.001" viewBox="0 0 17 17.001">
    <path fill="#b2b2cc" d="M21.524 98.309a5.3 5.3 0 0 0-2.906-4.718 7.2 7.2 0 0 1-7.094 7.094 5.285 5.285 0 0 0 7.1 2.341c.1-.053.208-.109.309-.169l2.571.711L20.79 101a5.253 5.253 0 0 0 .734-2.691zm-10.5-11.718a6.5 6.5 0 0 0-5.6 9.8l-.876 3.176 3.176-.876a6.5 6.5 0 1 0 3.3-12.1zm.5 10.01h-1v-1h1zm.845-3.551l-.847.776v.774h-1v-1.22l1.178-1.066a.988.988 0 0 0 .325-.736 1 1 0 0 0-1.993 0h-1a1.995 1.995 0 1 1 3.338 1.472z" transform="translate(-4.524 -86.591)"/>
</svg>
