<svg xmlns="http://www.w3.org/2000/svg" width="24" height="24" viewBox="0 0 24 24">
    <path fill="#ffa700" d="M13.025 101.465a6 6 0 1 1 6-6 6.007 6.007 0 0 1-6 6zm0-10a4 4 0 1 0 4 4 4 4 0 0 0-4-4zm1-5v-2a1 1 0 0 0-2 0v2a1 1 0 0 0 2 0zm0 20v-2a1 1 0 0 0-2 0v2a1 1 0 0 0 2 0zM7.372 89.813a1 1 0 0 0 0-1.415l-1.42-1.42a1 1 0 0 0-1.415 1.414l1.42 1.421a1 1 0 0 0 1.414 0zm14.14 14.139a1 1 0 0 0 0-1.414l-1.42-1.42a1 1 0 1 0-1.414 1.414l1.42 1.42a1 1 0 0 0 1.414 0zM5.025 95.465a1 1 0 0 0-1-1h-2a1 1 0 1 0 0 2h2a1 1 0 0 0 1-1zm20 0a1 1 0 0 0-1-1h-2a1 1 0 0 0 0 2h2a1 1 0 0 0 1-1zm-19.073 8.487l1.42-1.42a1 1 0 1 0-1.414-1.414l-1.42 1.42a1 1 0 1 0 1.414 1.414zm14.14-14.139l1.42-1.421a1 1 0 0 0-1.412-1.414l-1.42 1.42a1 1 0 0 0 1.414 1.415z" transform="translate(-1.025 -83.465)"/>
</svg>
